<?xml version="1.0" encoding="UTF-8" standalone="no"?><!DOCTYPE svg PUBLIC "-//W3C//DTD SVG 1.1//EN" "http://www.w3.org/Graphics/SVG/1.1/DTD/svg11.dtd"><svg width="100%" height="100%" viewBox="0 0 497 56" version="1.1" xmlns="http://www.w3.org/2000/svg" xmlns:xlink="http://www.w3.org/1999/xlink" xml:space="preserve" style="fill-rule:evenodd;clip-rule:evenodd;stroke-linejoin:round;stroke-miterlimit:2;"><path d="M15.496,27.989l9.334,-25.099l4.156,0c0.547,0 0.62,0.048 0.62,0.243c-0.035,0.245 -0.291,0.245 -0.547,0.439c-0.984,0.732 -1.094,1.901 -1.094,4.045l0,15.839c0,3.898 0.401,7.164 0.876,8.675c0.437,1.364 1.385,1.364 1.385,1.802c0,0.147 -0.218,0.293 -0.475,0.293c-0.437,0 -1.567,-0.146 -3.244,-0.146c-1.932,0 -3.39,0.146 -3.61,0.146c-0.218,0 -0.255,-0.195 -0.255,-0.293c0,-0.146 0.73,-0.291 1.204,-0.974c0.655,-0.877 0.984,-2.339 0.984,-6.092l0,-20.663l-0.073,0l-9.844,26.999c-0.292,0.73 -0.547,1.267 -0.803,1.267c-0.327,0 -0.473,-0.731 -0.728,-1.462l-9.479,-26.463l-0.074,0l0,19.737c0,4.972 0.839,5.995 1.969,7.116c0.291,0.292 0.438,0.438 0.438,0.633c0,0.146 -0.147,0.195 -0.693,0.195c-0.365,0 -0.985,-0.146 -2.297,-0.146c-1.787,0 -2.48,0.146 -2.844,0.146c-0.292,0 -0.402,-0.097 -0.402,-0.243c0,-0.147 0.365,-0.391 0.62,-0.634c1.641,-1.803 2.043,-4.922 2.043,-8.48l0,-16.326c0,-3.217 -0.292,-4.239 -1.459,-5.068c-0.256,-0.195 -0.474,-0.292 -0.474,-0.537c0.036,-0.194 0.474,-0.242 0.583,-0.242c0.802,0 1.604,0.194 2.407,0.194c0.546,0 1.13,-0.194 1.677,-0.194c0.218,0 0.437,0 0.656,0.144c0.146,0.147 0.985,2.73 1.167,3.12l8.276,22.029Z" style="fill-rule:nonzero;"/><path d="M45.138,23.381c-3.864,0 -9.005,0.73 -9.005,5.581c0,3.21 2.478,4.851 5.432,4.851c5.469,0 6.271,-4.376 6.271,-8.827l0,-1.605l-2.698,0Zm5.615,5.326c0,2.298 0.291,4.669 1.275,4.998c0.183,0.072 0.293,0.181 0.293,0.291c0,0.146 -0.146,0.255 -0.329,0.255c-0.146,0 -1.02,-0.072 -1.422,-0.072c-0.473,0 -0.947,0.072 -1.348,0.072c-0.292,0 -0.439,-0.182 -0.439,-0.292c0,-0.911 -0.51,-2.407 -0.619,-3.429l-0.073,0c-1.568,3.138 -4.339,4.195 -7.693,4.195c-3.536,0 -7.766,-1.86 -7.766,-5.836c0,-5.581 8.312,-6.42 12.433,-6.42l2.771,0c0,-4.268 -1.203,-6.894 -5.834,-6.894c-2.551,0 -6.672,1.386 -7,4.268c0,0.109 -0.073,0.146 -0.181,0.146c-0.074,0 -0.111,0 -0.148,-0.11l-0.983,-3.465c2.843,-1.24 5.833,-1.751 8.203,-1.751c6.636,0 8.86,2.882 8.86,7.113l0,6.931Z" style="fill-rule:nonzero;"/><path d="M58.956,15.21l0,4.268l0.074,0c1.311,-3.137 3.791,-4.815 6.452,-4.815c4.595,0 6.126,1.933 7.329,5.144l0.073,0c0.984,-3.502 3.39,-5.144 6.271,-5.144c6.234,0 8.131,3.429 8.131,7.989l0,6.383c0,2.699 0.109,4.013 1.057,4.706c0.329,0.218 0.656,0.291 0.656,0.364c0,0.11 -0.109,0.146 -0.255,0.146c-0.583,0 -1.933,-0.072 -3.098,-0.072c-1.168,0 -2.517,0.072 -2.735,0.072c-0.182,0 -0.328,-0.036 -0.328,-0.146c0,-0.073 0.146,-0.219 0.4,-0.328c1.058,-0.547 1.385,-2.043 1.385,-4.195l0,-6.347c0,-6.055 -2.843,-7.66 -5.321,-7.66c-4.304,0 -5.616,3.794 -5.616,9.265l0,5.69c0,1.204 0.255,2.7 1.094,3.101c0.364,0.182 0.693,0.401 0.693,0.474c0,0.11 -0.183,0.146 -0.365,0.146c-0.62,0 -1.969,-0.072 -3.135,-0.072c-1.168,0 -2.516,0.072 -2.808,0.072c-0.183,0 -0.292,-0.036 -0.292,-0.146c0,-0.073 0.255,-0.182 0.584,-0.4c1.13,-0.73 1.313,-1.971 1.313,-5.253l0,-6.749c0,-4.523 -2.918,-6.128 -5.033,-6.128c-3.464,0 -6.234,4.232 -6.234,8.244l0,6.128c0,1.787 0.183,3.028 1.203,3.83c0.182,0.109 0.474,0.146 0.474,0.328c0,0.11 -0.218,0.146 -0.401,0.146c-0.219,0 -0.621,-0.072 -2.624,-0.072c-1.898,0 -2.408,0.072 -2.663,0.072c-0.182,0 -0.328,-0.036 -0.328,-0.146c0,-0.182 0.256,-0.219 0.51,-0.4c0.949,-0.73 1.131,-3.065 1.131,-5.327l0,-8.937c0,-2.042 -0.621,-2.297 -1.021,-2.516c-0.364,-0.183 -0.51,-0.219 -0.51,-0.364c0,-0.111 0.073,-0.22 0.255,-0.256l3.682,-1.095Z" style="fill-rule:nonzero;"/><path d="M95.416,15.21l0,4.268l0.074,0c1.311,-3.137 3.792,-4.815 6.452,-4.815c4.595,0 6.126,1.933 7.33,5.144l0.072,0c0.984,-3.502 3.391,-5.144 6.271,-5.144c6.236,0 8.131,3.429 8.131,7.989l0,6.383c0,2.699 0.11,4.013 1.058,4.706c0.328,0.218 0.655,0.291 0.655,0.364c0,0.11 -0.109,0.146 -0.255,0.146c-0.583,0 -1.933,-0.072 -3.099,-0.072c-1.167,0 -2.516,0.072 -2.734,0.072c-0.183,0 -0.328,-0.036 -0.328,-0.146c0,-0.073 0.145,-0.219 0.4,-0.328c1.058,-0.547 1.386,-2.043 1.386,-4.195l0,-6.347c0,-6.055 -2.844,-7.66 -5.322,-7.66c-4.304,0 -5.616,3.794 -5.616,9.265l0,5.69c0,1.204 0.255,2.7 1.094,3.101c0.364,0.182 0.693,0.401 0.693,0.474c0,0.11 -0.183,0.146 -0.365,0.146c-0.619,0 -1.969,-0.072 -3.136,-0.072c-1.167,0 -2.515,0.072 -2.807,0.072c-0.183,0 -0.292,-0.036 -0.292,-0.146c0,-0.073 0.255,-0.182 0.584,-0.4c1.13,-0.73 1.313,-1.971 1.313,-5.253l0,-6.749c0,-4.523 -2.917,-6.128 -5.033,-6.128c-3.464,0 -6.234,4.232 -6.234,8.244l0,6.128c0,1.787 0.183,3.028 1.203,3.83c0.182,0.109 0.474,0.146 0.474,0.328c0,0.11 -0.219,0.146 -0.401,0.146c-0.217,0 -0.62,-0.072 -2.624,-0.072c-1.898,0 -2.408,0.072 -2.662,0.072c-0.183,0 -0.329,-0.036 -0.329,-0.146c0,-0.182 0.256,-0.219 0.51,-0.4c0.949,-0.73 1.131,-3.065 1.131,-5.327l0,-8.937c0,-2.042 -0.621,-2.297 -1.02,-2.516c-0.365,-0.183 -0.511,-0.219 -0.511,-0.364c0,-0.111 0.073,-0.22 0.255,-0.256l3.682,-1.095Z" style="fill-rule:nonzero;"/><path d="M140.335,23.381c-3.864,0 -9.005,0.73 -9.005,5.581c0,3.21 2.479,4.851 5.432,4.851c5.469,0 6.271,-4.376 6.271,-8.827l0,-1.605l-2.698,0Zm5.616,5.326c0,2.298 0.291,4.669 1.275,4.998c0.183,0.072 0.292,0.181 0.292,0.291c0,0.146 -0.146,0.255 -0.329,0.255c-0.145,0 -1.02,-0.072 -1.421,-0.072c-0.474,0 -0.948,0.072 -1.35,0.072c-0.291,0 -0.437,-0.182 -0.437,-0.292c0,-0.911 -0.51,-2.407 -0.62,-3.429l-0.073,0c-1.568,3.138 -4.338,4.195 -7.692,4.195c-3.537,0 -7.766,-1.86 -7.766,-5.836c0,-5.581 8.312,-6.42 12.432,-6.42l2.771,0c0,-4.268 -1.203,-6.894 -5.834,-6.894c-2.552,0 -6.671,1.386 -7,4.268c0,0.109 -0.072,0.146 -0.181,0.146c-0.073,0 -0.111,0 -0.147,-0.11l-0.984,-3.465c2.843,-1.24 5.834,-1.751 8.204,-1.751c6.635,0 8.86,2.882 8.86,7.113l0,6.931Z" style="fill-rule:nonzero;"/><path d="M175.467,0l1.697,10.986c0.052,0.397 0.105,0.693 0.105,0.99c0,0.198 0,0.396 -0.105,0.396c-0.213,0 -0.425,-0.494 -0.691,-1.088c-2.331,-6.533 -7.787,-8.809 -11.761,-8.809c-1.854,0 -3.178,0.298 -3.178,4.058l0,29.529c0,12.371 0.688,17.023 2.542,18.211c0.796,0.495 1.326,0.89 1.326,1.088c0,0.297 -0.212,0.396 -0.583,0.396c-0.372,0 -1.643,-0.296 -5.351,-0.296c-4.185,0 -5.617,0.296 -6.147,0.296c-0.423,0 -0.476,-0.296 -0.476,-0.594c0,-0.493 0.584,-0.493 1.324,-0.79c2.12,-0.99 2.809,-9.799 2.809,-20.091l0,-27.749c0,-3.76 -1.325,-4.058 -3.179,-4.058c-3.973,0 -9.431,2.276 -11.762,8.809c-0.265,0.594 -0.478,1.088 -0.69,1.088c-0.104,0 -0.104,-0.198 -0.104,-0.396c0,-0.297 0.053,-0.593 0.104,-0.99l1.697,-10.986l32.423,0Z" style="fill-rule:nonzero;"/><path d="M188.28,21.229c0,-3.538 -2.589,-5.654 -6.016,-5.654c-3.866,0 -5.906,2.116 -6.709,5.654l12.725,0Zm-12.798,0.912c-0.109,0.547 -0.219,1.204 -0.219,1.787c0,5.362 2.006,9.74 7.766,9.74c5.506,0 8.132,-5.29 8.35,-6.493c0.036,-0.219 0.183,-0.511 0.474,-0.511c0.218,0 0.292,0.146 0.292,0.329c0,0.291 -0.074,0.619 -0.183,0.911c-1.349,4.304 -5.469,6.821 -10.354,6.821c-5.652,0 -9.845,-4.741 -9.845,-10.286c0,-4.779 3.902,-9.776 10.282,-9.776c4.74,0 9.297,2.554 9.735,7.478l-16.298,0Z" style="fill-rule:nonzero;"/><path d="M205.268,18.31c-0.437,-0.364 -0.984,-0.948 -1.968,-0.948c-3.063,0 -4.046,3.685 -4.046,9.448l0,2.225c0,2.699 0.327,4.414 1.786,4.596c0.4,0.037 0.62,0.182 0.62,0.438c0,0.182 -0.11,0.182 -0.293,0.182c-0.619,0 -1.968,-0.072 -3.244,-0.072c-1.276,0 -2.625,0.072 -3.245,0.072c-0.182,0 -0.438,-0.072 -0.438,-0.182c0,-0.146 0.256,-0.328 0.621,-0.474c1.166,-0.584 1.494,-1.861 1.494,-5.217l0,-10.577c0,-0.73 -0.62,-1.205 -1.239,-1.423c-0.292,-0.073 -0.547,-0.219 -0.547,-0.292c0,-0.074 0.219,-0.146 0.473,-0.218l3.793,-1.023l0,5.107l0.072,0c1.641,-3.574 3.792,-5.289 7.402,-5.289l-1.241,3.647Z" style="fill-rule:nonzero;"/><path d="M224.739,21.229c0,-3.538 -2.589,-5.654 -6.016,-5.654c-3.865,0 -5.907,2.116 -6.709,5.654l12.725,0Zm-12.798,0.912c-0.109,0.547 -0.218,1.204 -0.218,1.787c0,5.362 2.005,9.74 7.766,9.74c5.506,0 8.131,-5.29 8.349,-6.493c0.037,-0.219 0.183,-0.511 0.475,-0.511c0.218,0 0.291,0.146 0.291,0.329c0,0.291 -0.073,0.619 -0.183,0.911c-1.348,4.304 -5.468,6.821 -10.355,6.821c-5.651,0 -9.844,-4.741 -9.844,-10.286c0,-4.779 3.902,-9.776 10.282,-9.776c4.74,0 9.297,2.554 9.735,7.478l-16.298,0Z" style="fill-rule:nonzero;"/><path d="M247.307,19.113c-0.109,0.328 -0.219,0.474 -0.328,0.474c-0.183,0 -0.255,-0.255 -0.438,-0.839c-0.656,-2.224 -3.792,-3.173 -6.161,-3.173c-2.516,0 -5.251,1.131 -5.251,3.794c0,3.611 4.157,3.721 6.854,3.939c3.062,0.292 7.183,0.693 7.183,4.742c0,4.706 -5.213,6.675 -9.151,6.675c-3.209,0 -6.527,-0.328 -9.37,-1.933l0.766,-2.371c0.292,-0.948 0.437,-1.239 0.655,-1.239c0.182,0 0.256,0.291 0.438,0.765c1.021,3.028 4.63,3.866 7.438,3.866c2.698,0 6.307,-0.838 6.307,-4.194c0,-3.575 -4.083,-3.612 -7,-3.794c-2.99,-0.291 -7.037,-1.641 -7.037,-5.288c0,-4.451 5.105,-5.874 8.715,-5.874c2.479,0 5.067,0.547 7.328,1.532l-0.948,2.918Z" style="fill-rule:nonzero;"/><path d="M264.588,23.381c-3.864,0 -9.005,0.73 -9.005,5.581c0,3.21 2.479,4.851 5.432,4.851c5.469,0 6.271,-4.376 6.271,-8.827l0,-1.605l-2.698,0Zm5.616,5.326c0,2.298 0.291,4.669 1.276,4.998c0.181,0.072 0.292,0.181 0.292,0.291c0,0.146 -0.147,0.255 -0.33,0.255c-0.145,0 -1.02,-0.072 -1.421,-0.072c-0.474,0 -0.948,0.072 -1.349,0.072c-0.291,0 -0.438,-0.182 -0.438,-0.292c0,-0.911 -0.51,-2.407 -0.62,-3.429l-0.073,0c-1.567,3.138 -4.338,4.195 -7.692,4.195c-3.537,0 -7.767,-1.86 -7.767,-5.836c0,-5.581 8.312,-6.42 12.433,-6.42l2.771,0c0,-4.268 -1.203,-6.894 -5.834,-6.894c-2.551,0 -6.671,1.386 -7,4.268c0,0.109 -0.074,0.146 -0.181,0.146c-0.073,0 -0.11,0 -0.147,-0.11l-0.984,-3.465c2.843,-1.24 5.834,-1.751 8.204,-1.751c6.635,0 8.86,2.882 8.86,7.113l0,6.931Z" style="fill-rule:nonzero;"/><path d="M175.917,47.394c0.468,0.078 0.951,0.108 1.435,0.108c1.671,0 4.7,-0.062 4.7,-2.389c0,-1.624 -1.328,-2.03 -2.873,-2.139c-0.547,-0.03 -1.093,-0.062 -1.686,-0.062c-0.516,0 -1.077,0.015 -1.576,0.032l0,4.45Zm-1.343,-3.28c0,-0.499 -0.095,-1.14 -0.609,-1.374c-0.109,-0.062 -0.141,-0.094 -0.141,-0.125c0,-0.062 0.064,-0.094 0.219,-0.094l4.557,0c3.434,0 5.12,1.124 5.12,2.592c0,2.545 -4.324,2.78 -6.025,2.78c-0.592,0 -1.186,-0.031 -1.778,-0.031l0,1.92c0,1.532 0.171,2.405 0.795,2.577c0.312,0.094 0.391,0.094 0.391,0.203c0,0.031 -0.032,0.063 -0.173,0.063c-0.14,0 -1.232,-0.047 -1.669,-0.047c-0.985,0 -1.53,0.047 -1.655,0.047c-0.094,0 -0.156,-0.032 -0.156,-0.079c0,-0.093 0.234,-0.108 0.453,-0.234c0.406,-0.249 0.671,-0.998 0.671,-2.778l0,-5.42Z" style="fill-rule:nonzero;"/><path d="M188.669,43.942l-1.888,3.373l3.651,0l-1.763,-3.373Zm-2.077,3.765l-0.999,1.888c-0.311,0.579 -0.686,1.39 -0.686,1.999c0,0.266 0.157,0.516 0.39,0.687c0.187,0.14 0.437,0.172 0.437,0.265c0,0.047 -0.094,0.064 -0.233,0.064c-0.375,0 -0.734,-0.032 -1.093,-0.032c-0.375,0 -0.765,0.032 -1.14,0.032c-0.14,0 -0.281,0 -0.281,-0.079c0,-0.093 0.234,-0.202 0.329,-0.296c0.639,-0.609 1.233,-1.655 1.606,-2.312l4.105,-7.557c0.033,-0.063 0.062,-0.095 0.111,-0.095l0.03,0c0.047,0 0.11,0.062 0.11,0.095l4.604,8.869c0.219,0.423 0.593,0.859 0.984,1.124c0.141,0.094 0.233,0.141 0.233,0.172c0,0.031 -0.015,0.079 -0.156,0.079c-0.453,0 -0.983,-0.032 -1.467,-0.032c-0.483,0 -1.14,0.032 -1.575,0.032c-0.079,0 -0.126,-0.017 -0.126,-0.048c0,-0.093 0.141,-0.109 0.296,-0.187c0.141,-0.078 0.281,-0.219 0.281,-0.562c0,-0.421 -0.344,-1.233 -0.749,-2.045l-1.015,-2.061l-3.996,0Z" style="fill-rule:nonzero;"/><path d="M199.237,47.815c-1.28,-0.249 -3.153,-0.828 -3.153,-2.451c0,-2.015 1.996,-3.093 4.433,-3.093c1.341,0 2.903,0.344 4.089,0.968l-0.436,1.281c-0.064,0.172 -0.126,0.328 -0.174,0.328c-0.047,0 -0.077,-0.14 -0.139,-0.328c-0.469,-1.437 -2.686,-1.859 -3.809,-1.859c-1.139,0 -2.623,0.484 -2.623,2.047c0,1.499 1.92,1.764 3.012,1.983l1.843,0.343c1.388,0.266 2.622,0.969 2.622,2.53c0,2.482 -3.2,3.327 -4.979,3.327c-1.452,0 -3.294,-0.5 -4.543,-1.094c-0.109,-0.047 -0.156,-0.077 -0.156,-0.094c0,-0.015 0.016,-0.062 0.033,-0.094l0.514,-1.576c0.016,-0.062 0.062,-0.11 0.124,-0.11c0.049,0 0.094,0.048 0.111,0.125c0.203,1.749 2.59,2.452 4.104,2.452c1.437,0 3.451,-0.578 3.451,-2.311c0,-1.359 -1.062,-1.719 -2.358,-1.984l-1.966,-0.39Z" style="fill-rule:nonzero;"/><path d="M215.829,42.584l0.499,1.734c0.016,0.062 0.031,0.109 0.031,0.155c0,0.032 0,0.062 -0.031,0.062c-0.062,0 -0.125,-0.077 -0.202,-0.17c-0.689,-1.033 -2.295,-1.391 -3.467,-1.391c-0.545,0 -0.936,0.047 -0.936,0.641l0,5.902c0,1.952 0.202,2.686 0.749,2.874c0.234,0.078 0.391,0.14 0.391,0.171c0,0.048 -0.063,0.063 -0.172,0.063c-0.109,0 -0.485,-0.047 -1.577,-0.047c-1.233,0 -1.653,0.047 -1.812,0.047c-0.123,0 -0.139,-0.047 -0.139,-0.094c0,-0.078 0.172,-0.078 0.39,-0.125c0.624,-0.156 0.827,-1.545 0.827,-3.17l0,-5.621c0,-0.594 -0.389,-0.641 -0.936,-0.641c-1.171,0 -2.778,0.358 -3.465,1.391c-0.078,0.093 -0.141,0.17 -0.203,0.17c-0.031,0 -0.031,-0.03 -0.031,-0.062c0,-0.046 0.016,-0.093 0.031,-0.155l0.5,-1.734l9.553,0Z" style="fill-rule:nonzero;"/><path d="M221.056,43.942l-1.888,3.373l3.653,0l-1.765,-3.373Zm-2.076,3.765l-0.999,1.888c-0.311,0.579 -0.686,1.39 -0.686,1.999c0,0.266 0.156,0.516 0.389,0.687c0.189,0.14 0.437,0.172 0.437,0.265c0,0.047 -0.093,0.064 -0.233,0.064c-0.376,0 -0.734,-0.032 -1.092,-0.032c-0.376,0 -0.766,0.032 -1.14,0.032c-0.14,0 -0.281,0 -0.281,-0.079c0,-0.093 0.233,-0.202 0.328,-0.296c0.64,-0.609 1.233,-1.655 1.607,-2.312l4.106,-7.557c0.031,-0.063 0.062,-0.095 0.108,-0.095l0.031,0c0.048,0 0.11,0.062 0.11,0.095l4.605,8.869c0.218,0.423 0.593,0.859 0.983,1.124c0.141,0.094 0.233,0.141 0.233,0.172c0,0.031 -0.014,0.079 -0.154,0.079c-0.453,0 -0.985,-0.032 -1.468,-0.032c-0.484,0 -1.14,0.032 -1.576,0.032c-0.078,0 -0.126,-0.017 -0.126,-0.048c0,-0.093 0.141,-0.109 0.297,-0.187c0.14,-0.078 0.28,-0.219 0.28,-0.562c0,-0.421 -0.342,-1.233 -0.749,-2.045l-1.014,-2.061l-3.996,0Z" style="fill-rule:nonzero;"/><path d="M229.841,48.97l0.282,-0.905l3.574,0l-0.282,0.905l-3.574,0Z" style="fill-rule:nonzero;"/><path d="M241.362,47.815c-1.28,-0.249 -3.153,-0.828 -3.153,-2.451c0,-2.015 1.997,-3.093 4.432,-3.093c1.342,0 2.904,0.344 4.09,0.968l-0.437,1.281c-0.062,0.172 -0.125,0.328 -0.172,0.328c-0.047,0 -0.077,-0.14 -0.14,-0.328c-0.468,-1.437 -2.685,-1.859 -3.809,-1.859c-1.139,0 -2.621,0.484 -2.621,2.047c0,1.499 1.919,1.764 3.011,1.983l1.843,0.343c1.387,0.266 2.622,0.969 2.622,2.53c0,2.482 -3.2,3.327 -4.979,3.327c-1.452,0 -3.294,-0.5 -4.543,-1.094c-0.109,-0.047 -0.156,-0.077 -0.156,-0.094c0,-0.015 0.016,-0.062 0.032,-0.094l0.514,-1.576c0.016,-0.062 0.062,-0.11 0.126,-0.11c0.046,0 0.092,0.048 0.108,0.125c0.204,1.749 2.591,2.452 4.106,2.452c1.436,0 3.45,-0.578 3.45,-2.311c0,-1.359 -1.062,-1.719 -2.357,-1.984l-1.967,-0.39Z" style="fill-rule:nonzero;"/><path d="M253.349,43.942l-1.889,3.373l3.653,0l-1.764,-3.373Zm-2.076,3.765l-0.999,1.888c-0.311,0.579 -0.687,1.39 -0.687,1.999c0,0.266 0.157,0.516 0.391,0.687c0.187,0.14 0.437,0.172 0.437,0.265c0,0.047 -0.094,0.064 -0.235,0.064c-0.374,0 -0.733,-0.032 -1.092,-0.032c-0.375,0 -0.766,0.032 -1.139,0.032c-0.141,0 -0.281,0 -0.281,-0.079c0,-0.093 0.233,-0.202 0.328,-0.296c0.639,-0.609 1.233,-1.655 1.606,-2.312l4.106,-7.557c0.032,-0.063 0.062,-0.095 0.109,-0.095l0.032,0c0.046,0 0.109,0.062 0.109,0.095l4.604,8.869c0.218,0.423 0.594,0.859 0.984,1.124c0.14,0.094 0.234,0.141 0.234,0.172c0,0.031 -0.015,0.079 -0.156,0.079c-0.453,0 -0.983,-0.032 -1.468,-0.032c-0.484,0 -1.139,0.032 -1.575,0.032c-0.078,0 -0.125,-0.017 -0.125,-0.048c0,-0.093 0.139,-0.109 0.295,-0.187c0.141,-0.078 0.281,-0.219 0.281,-0.562c0,-0.421 -0.343,-1.233 -0.749,-2.045l-1.014,-2.061l-3.996,0Z" style="fill-rule:nonzero;"/><path d="M261.466,52.578c-0.329,0 -0.562,0.015 -0.75,0.015c-0.171,0.017 -0.265,0.032 -0.328,0.032c-0.125,0 -0.17,-0.015 -0.17,-0.094c0,-0.062 0.092,-0.093 0.218,-0.125c0.78,-0.233 0.998,-0.827 0.998,-2.686l0,-5.481c0,-1.061 -0.202,-1.374 -0.64,-1.499c-0.094,-0.03 -0.125,-0.079 -0.125,-0.109c0,-0.062 0.079,-0.11 0.281,-0.11c0.187,0 0.532,0.063 1.109,0.063c0.671,0 1.108,-0.063 1.435,-0.063c0.063,0 0.173,0 0.173,0.094c0,0.063 -0.062,0.078 -0.126,0.11c-0.623,0.171 -0.749,0.764 -0.764,1.373l0,4.42c0,3.498 0.234,3.669 1.748,3.669c1.483,0 4.105,-0.171 5.166,-1.467c0.078,-0.126 0.155,-0.234 0.25,-0.234c0.063,0 0.079,0.046 0.079,0.108c0,0.033 -0.016,0.126 -0.033,0.188l-0.593,1.796l-7.928,0Z" style="fill-rule:nonzero;"/><path d="M271.877,52.578c-0.328,0 -0.562,0.015 -0.75,0.015c-0.171,0.017 -0.265,0.032 -0.327,0.032c-0.126,0 -0.172,-0.015 -0.172,-0.094c0,-0.062 0.093,-0.093 0.218,-0.125c0.781,-0.233 0.999,-0.827 0.999,-2.686l0,-5.481c0,-1.061 -0.202,-1.374 -0.641,-1.499c-0.092,-0.03 -0.124,-0.079 -0.124,-0.109c0,-0.062 0.079,-0.11 0.281,-0.11c0.188,0 0.53,0.063 1.108,0.063c0.672,0 1.108,-0.063 1.437,-0.063c0.062,0 0.172,0 0.172,0.094c0,0.063 -0.063,0.078 -0.125,0.11c-0.625,0.171 -0.75,0.764 -0.765,1.373l0,4.42c0,3.498 0.234,3.669 1.748,3.669c1.483,0 4.104,-0.171 5.167,-1.467c0.076,-0.126 0.156,-0.234 0.249,-0.234c0.063,0 0.078,0.046 0.078,0.108c0,0.033 -0.015,0.126 -0.031,0.188l-0.593,1.796l-7.929,0Z" style="fill-rule:nonzero;"/><path d="M286.315,43.942l-1.889,3.373l3.653,0l-1.764,-3.373Zm-2.077,3.765l-1,1.888c-0.31,0.579 -0.686,1.39 -0.686,1.999c0,0.266 0.157,0.516 0.391,0.687c0.188,0.14 0.436,0.172 0.436,0.265c0,0.047 -0.093,0.064 -0.233,0.064c-0.375,0 -0.735,-0.032 -1.093,-0.032c-0.374,0 -0.765,0.032 -1.139,0.032c-0.14,0 -0.281,0 -0.281,-0.079c0,-0.093 0.233,-0.202 0.328,-0.296c0.639,-0.609 1.233,-1.655 1.606,-2.312l4.106,-7.557c0.032,-0.063 0.063,-0.095 0.109,-0.095l0.032,0c0.047,0 0.109,0.062 0.109,0.095l4.605,8.869c0.217,0.423 0.593,0.859 0.983,1.124c0.14,0.094 0.235,0.141 0.235,0.172c0,0.031 -0.016,0.079 -0.156,0.079c-0.453,0 -0.984,-0.032 -1.468,-0.032c-0.484,0 -1.141,0.032 -1.577,0.032c-0.077,0 -0.125,-0.017 -0.125,-0.048c0,-0.093 0.141,-0.109 0.296,-0.187c0.141,-0.078 0.281,-0.219 0.281,-0.562c0,-0.421 -0.343,-1.233 -0.749,-2.045l-1.014,-2.061l-3.996,0Z" style="fill-rule:nonzero;"/><path d="M295.571,49.705c-0.001,1.936 0.297,2.389 0.967,2.451c0.64,0.062 1.077,0.079 1.451,0.079c0.392,0 0.782,-0.017 1.171,-0.048c2.216,-0.188 3.7,-1.357 3.7,-4.825c0,-3.28 -1.514,-4.45 -4.667,-4.45l-2.623,0l0,6.793Zm-1.343,-5.029c0,-1.406 -0.202,-1.67 -0.593,-1.858c-0.093,-0.063 -0.17,-0.093 -0.17,-0.172c0,-0.062 0.047,-0.125 0.468,-0.125l4.792,0c3.87,0 5.807,2.344 5.807,4.856c0,2.859 -2.03,4.952 -5.151,5.201c-0.391,0.032 -0.797,0.047 -1.202,0.047c-0.406,0 -1.109,-0.047 -1.827,-0.047l-1.779,0c-0.328,0 -0.609,0.015 -0.828,0.032c-0.203,0.015 -0.359,0.03 -0.453,0.03c-0.062,0 -0.108,-0.015 -0.108,-0.047c0,-0.062 0.062,-0.093 0.171,-0.155c0.828,-0.469 0.873,-0.829 0.873,-2.452l0,-5.31Z" style="fill-rule:nonzero;"/><path d="M310.367,48.97l0.282,-0.905l3.574,0l-0.281,0.905l-3.575,0Z" style="fill-rule:nonzero;"/><path d="M322.121,47.394c0.469,0.078 0.952,0.108 1.436,0.108c1.67,0 4.698,-0.062 4.698,-2.389c0,-1.624 -1.326,-2.03 -2.872,-2.139c-0.546,-0.03 -1.092,-0.062 -1.685,-0.062c-0.516,0 -1.078,0.015 -1.577,0.032l0,4.45Zm-1.343,-3.28c0,-0.499 -0.094,-1.14 -0.609,-1.374c-0.109,-0.062 -0.14,-0.094 -0.14,-0.125c0,-0.062 0.063,-0.094 0.219,-0.094l4.557,0c3.434,0 5.12,1.124 5.12,2.592c0,2.545 -4.324,2.78 -6.025,2.78c-0.594,0 -1.187,-0.031 -1.779,-0.031l0,1.92c0,1.532 0.171,2.405 0.795,2.577c0.313,0.094 0.39,0.094 0.39,0.203c0,0.031 -0.03,0.063 -0.171,0.063c-0.141,0 -1.234,-0.047 -1.67,-0.047c-0.984,0 -1.53,0.047 -1.655,0.047c-0.094,0 -0.156,-0.032 -0.156,-0.079c0,-0.093 0.234,-0.108 0.453,-0.234c0.406,-0.249 0.671,-0.998 0.671,-2.778l0,-5.42Z" style="fill-rule:nonzero;"/><path d="M331.564,44.098c0,-0.499 -0.032,-1.171 -0.578,-1.373c-0.063,-0.032 -0.109,-0.047 -0.109,-0.11c0,-0.094 0.046,-0.094 0.25,-0.094c0.186,0 0.53,0.063 1.108,0.063c0.358,0 0.734,-0.063 1.092,-0.063c0.062,0 0.265,0 0.265,0.078c0,0.062 -0.031,0.111 -0.108,0.126c-0.532,0.155 -0.578,0.764 -0.578,1.373l0,5.497c0,1.422 0,2.531 0.701,2.843c0.125,0.046 0.173,0.093 0.173,0.14c0,0.032 -0.078,0.047 -0.173,0.047c-0.14,0 -0.623,-0.047 -1.372,-0.047c-0.875,0 -1.296,0.047 -1.437,0.047c-0.124,0 -0.187,-0.015 -0.187,-0.063c0,-0.031 0.11,-0.078 0.218,-0.156c0.687,-0.437 0.735,-1.812 0.735,-2.811l0,-5.497Z" style="fill-rule:nonzero;"/><path d="M340.211,47.362c-1.467,1.999 -2.825,3.999 -2.825,4.388c0,0.437 0.937,0.437 1.937,0.437c1.607,0 3.106,-0.25 4.291,-1.42c0.156,-0.173 0.234,-0.266 0.312,-0.266c0.062,0 0.078,0.047 0.078,0.093c0,0.033 0,0.063 -0.016,0.095l-0.624,1.889l-8.646,0l3.745,-4.871c1.498,-2.03 2.981,-3.968 2.981,-4.358c0,-0.234 -0.202,-0.375 -1.654,-0.375c-2.81,0 -3.668,0.515 -4.448,1.311c-0.14,0.142 -0.172,0.22 -0.251,0.22c-0.03,0 -0.048,-0.032 -0.048,-0.078c0,-0.079 0.081,-0.329 0.097,-0.391l0.498,-1.452l8.086,0l-3.513,4.778Z" style="fill-rule:nonzero;"/><path d="M350.044,47.362c-1.467,1.999 -2.825,3.999 -2.825,4.388c0,0.437 0.936,0.437 1.937,0.437c1.607,0 3.104,-0.25 4.29,-1.42c0.158,-0.173 0.236,-0.266 0.313,-0.266c0.063,0 0.078,0.047 0.078,0.093c0,0.033 0,0.063 -0.015,0.095l-0.624,1.889l-8.648,0l3.746,-4.871c1.498,-2.03 2.981,-3.968 2.981,-4.358c0,-0.234 -0.202,-0.375 -1.653,-0.375c-2.812,0 -3.67,0.515 -4.449,1.311c-0.141,0.142 -0.172,0.22 -0.25,0.22c-0.032,0 -0.048,-0.032 -0.048,-0.078c0,-0.079 0.078,-0.329 0.095,-0.391l0.499,-1.452l8.085,0l-3.512,4.778Z" style="fill-rule:nonzero;"/><path d="M359.738,43.942l-1.888,3.373l3.651,0l-1.763,-3.373Zm-2.077,3.765l-0.998,1.888c-0.312,0.579 -0.687,1.39 -0.687,1.999c0,0.266 0.156,0.516 0.39,0.687c0.188,0.14 0.437,0.172 0.437,0.265c0,0.047 -0.094,0.064 -0.234,0.064c-0.375,0 -0.733,-0.032 -1.091,-0.032c-0.376,0 -0.767,0.032 -1.141,0.032c-0.14,0 -0.28,0 -0.28,-0.079c0,-0.093 0.233,-0.202 0.327,-0.296c0.641,-0.609 1.233,-1.655 1.607,-2.312l4.106,-7.557c0.031,-0.063 0.062,-0.095 0.11,-0.095l0.03,0c0.047,0 0.11,0.062 0.11,0.095l4.604,8.869c0.217,0.423 0.593,0.859 0.984,1.124c0.14,0.094 0.233,0.141 0.233,0.172c0,0.031 -0.015,0.079 -0.155,0.079c-0.453,0 -0.984,-0.032 -1.467,-0.032c-0.485,0 -1.14,0.032 -1.578,0.032c-0.077,0 -0.124,-0.017 -0.124,-0.048c0,-0.093 0.141,-0.109 0.297,-0.187c0.14,-0.078 0.279,-0.219 0.279,-0.562c0,-0.421 -0.342,-1.233 -0.749,-2.045l-1.014,-2.061l-3.996,0Z" style="fill-rule:nonzero;"/><path d="M9.373,43.943l-1.823,3.373l3.525,0l-1.702,-3.373Zm-2.004,3.764l-0.964,1.89c-0.301,0.577 -0.663,1.389 -0.663,1.998c0,0.266 0.151,0.516 0.377,0.688c0.182,0.141 0.421,0.171 0.421,0.265c0,0.046 -0.09,0.062 -0.226,0.062c-0.361,0 -0.708,-0.031 -1.054,-0.031c-0.362,0 -0.738,0.031 -1.099,0.031c-0.137,0 -0.273,0 -0.273,-0.078c0,-0.094 0.227,-0.202 0.317,-0.296c0.618,-0.609 1.19,-1.655 1.552,-2.311l3.962,-7.559c0.031,-0.062 0.062,-0.093 0.107,-0.093l0.029,0c0.045,0 0.105,0.062 0.105,0.093l4.445,8.871c0.211,0.421 0.573,0.858 0.95,1.124c0.135,0.093 0.225,0.141 0.225,0.171c0,0.032 -0.015,0.078 -0.15,0.078c-0.438,0 -0.95,-0.031 -1.417,-0.031c-0.467,0 -1.099,0.031 -1.522,0.031c-0.075,0 -0.121,-0.016 -0.121,-0.046c0,-0.094 0.137,-0.11 0.287,-0.188c0.136,-0.078 0.271,-0.218 0.271,-0.561c0,-0.423 -0.331,-1.234 -0.722,-2.046l-0.98,-2.062l-3.857,0Z" style="fill-rule:nonzero;"/><path d="M17.838,52.579c-0.316,0 -0.543,0.015 -0.724,0.015c-0.165,0.016 -0.256,0.032 -0.316,0.032c-0.119,0 -0.166,-0.016 -0.166,-0.094c0,-0.062 0.092,-0.094 0.211,-0.125c0.754,-0.234 0.965,-0.827 0.965,-2.686l0,-5.481c0,-1.061 -0.197,-1.374 -0.618,-1.499c-0.091,-0.032 -0.12,-0.078 -0.12,-0.11c0,-0.061 0.074,-0.108 0.27,-0.108c0.182,0 0.513,0.062 1.07,0.062c0.647,0 1.07,-0.062 1.387,-0.062c0.06,0 0.165,0 0.165,0.094c0,0.062 -0.059,0.077 -0.12,0.109c-0.603,0.171 -0.725,0.765 -0.738,1.374l0,4.419c0,3.498 0.225,3.67 1.687,3.67c1.431,0 3.962,-0.172 4.986,-1.467c0.077,-0.126 0.151,-0.236 0.241,-0.236c0.062,0 0.075,0.047 0.075,0.11c0,0.031 -0.013,0.126 -0.029,0.187l-0.573,1.796l-7.653,0Z" style="fill-rule:nonzero;"/><path d="M28.359,52.579c-0.315,0 -0.541,0.015 -0.722,0.015c-0.167,0.016 -0.256,0.032 -0.316,0.032c-0.121,0 -0.167,-0.016 -0.167,-0.094c0,-0.062 0.091,-0.094 0.211,-0.125c0.754,-0.234 0.963,-0.827 0.963,-2.686l0,-5.481c0,-1.061 -0.195,-1.374 -0.617,-1.499c-0.09,-0.032 -0.119,-0.078 -0.119,-0.11c0,-0.061 0.074,-0.108 0.27,-0.108c0.182,0 0.513,0.062 1.069,0.062c0.65,0 1.071,-0.062 1.387,-0.062c0.06,0 0.166,0 0.166,0.094c0,0.062 -0.061,0.077 -0.121,0.109c-0.603,0.171 -0.724,0.765 -0.738,1.374l0,4.419c0,3.498 0.226,3.67 1.687,3.67c1.432,0 3.963,-0.172 4.985,-1.467c0.077,-0.126 0.153,-0.236 0.242,-0.236c0.062,0 0.076,0.047 0.076,0.11c0,0.031 -0.014,0.126 -0.03,0.187l-0.573,1.796l-7.653,0Z" style="fill-rule:nonzero;"/><path d="M45.54,42.585l0.481,1.732c0.017,0.064 0.031,0.111 0.031,0.157c0,0.032 0,0.063 -0.031,0.063c-0.06,0 -0.12,-0.078 -0.195,-0.171c-0.663,-1.031 -2.215,-1.39 -3.345,-1.39c-0.527,0 -0.905,0.046 -0.905,0.64l0,5.902c0,1.953 0.197,2.687 0.723,2.874c0.227,0.078 0.378,0.14 0.378,0.172c0,0.046 -0.06,0.062 -0.166,0.062c-0.105,0 -0.468,-0.047 -1.522,-0.047c-1.19,0 -1.596,0.047 -1.747,0.047c-0.121,0 -0.136,-0.047 -0.136,-0.094c0,-0.078 0.167,-0.078 0.377,-0.125c0.602,-0.156 0.798,-1.546 0.798,-3.17l0,-5.621c0,-0.594 -0.376,-0.64 -0.904,-0.64c-1.13,0 -2.681,0.359 -3.343,1.39c-0.077,0.093 -0.136,0.171 -0.197,0.171c-0.03,0 -0.03,-0.031 -0.03,-0.063c0,-0.046 0.016,-0.093 0.03,-0.157l0.482,-1.732l9.221,0Z" style="fill-rule:nonzero;"/><path d="M52.987,44.1c0,-0.5 -0.03,-1.171 -0.557,-1.374c-0.061,-0.032 -0.106,-0.047 -0.106,-0.109c0,-0.094 0.045,-0.094 0.242,-0.094c0.179,0 0.512,0.062 1.069,0.062c0.347,0 0.708,-0.062 1.054,-0.062c0.062,0 0.256,0 0.256,0.078c0,0.062 -0.03,0.108 -0.105,0.125c-0.512,0.155 -0.557,0.765 -0.557,1.374l0,2.919l6.613,0l0,-2.919c0,-0.609 -0.044,-1.219 -0.555,-1.374c-0.076,-0.017 -0.108,-0.063 -0.108,-0.125c0,-0.078 0.196,-0.078 0.258,-0.078c0.345,0 0.707,0.062 1.053,0.062c0.558,0 0.889,-0.062 1.07,-0.062c0.196,0 0.242,0 0.242,0.094c0,0.062 -0.046,0.077 -0.106,0.109c-0.528,0.203 -0.557,0.874 -0.557,1.374l0,5.497c0,0.999 0.045,2.373 0.707,2.81c0.106,0.079 0.212,0.125 0.212,0.157c0,0.046 -0.06,0.062 -0.182,0.062c-0.135,0 -0.541,-0.047 -1.386,-0.047c-0.722,0 -1.189,0.047 -1.325,0.047c-0.091,0 -0.165,-0.016 -0.165,-0.047c0,-0.047 0.044,-0.093 0.165,-0.141c0.677,-0.311 0.677,-1.42 0.677,-2.841l0,-2.187l-6.613,0l0,2.187c0,1.421 0,2.53 0.678,2.841c0.121,0.048 0.165,0.094 0.165,0.141c0,0.031 -0.075,0.047 -0.165,0.047c-0.136,0 -0.602,-0.047 -1.326,-0.047c-0.843,0 -1.25,0.047 -1.386,0.047c-0.12,0 -0.18,-0.016 -0.18,-0.062c0,-0.032 0.105,-0.078 0.209,-0.157c0.663,-0.437 0.709,-1.811 0.709,-2.81l0,-5.497Z" style="fill-rule:nonzero;"/><path d="M66.704,49.44c0,0.609 0.044,1.203 0.104,1.812c0.092,0.859 0.512,0.937 2.05,0.937c1.462,0 3.104,-0.078 4.414,-0.828c0.481,-0.281 0.648,-0.516 0.904,-0.843c0.045,-0.046 0.091,-0.078 0.135,-0.078c0.045,0 0.077,0.032 0.077,0.078c0,0.046 0,0.109 -0.032,0.187l-0.603,1.874l-9.158,0c-0.15,0 -0.212,0 -0.212,-0.047c0,-0.062 0.076,-0.14 0.272,-0.187c0.708,-0.203 0.753,-1.983 0.753,-2.717l0,-5.451c0,-0.593 -0.031,-1.123 -0.573,-1.404c-0.06,-0.032 -0.105,-0.047 -0.105,-0.094c0,-0.094 0.181,-0.094 0.316,-0.094l8.015,0l0.271,0.906c0.121,0.39 0.287,1.015 0.287,1.077c0,0.047 -0.046,0.062 -0.091,0.062c-0.046,0 -0.107,-0.078 -0.151,-0.156c-0.768,-1.154 -2.094,-1.498 -3.932,-1.498l-2.741,0l0,4.043l1.461,0c2.169,0 3.088,-0.078 3.45,-0.437c0.226,-0.233 0.315,-0.406 0.421,-0.655c0.031,-0.047 0.061,-0.078 0.105,-0.078c0.077,0 0.077,0.093 0.077,0.249l0,2.296c0,0.094 0,0.249 -0.061,0.249c-0.029,0 -0.06,-0.031 -0.09,-0.078c-0.105,-0.233 -0.212,-0.437 -0.512,-0.655c-0.723,-0.5 -2.501,-0.5 -3.39,-0.5l-1.461,0l0,2.03Z" style="fill-rule:nonzero;"/><path d="M81.699,50.627l3.856,-8.042l1.718,0c0.226,0 0.256,0.016 0.256,0.078c-0.014,0.078 -0.121,0.078 -0.226,0.14c-0.407,0.234 -0.451,0.61 -0.451,1.297l0,5.075c0,1.25 0.165,2.296 0.361,2.78c0.18,0.437 0.572,0.437 0.572,0.577c0,0.047 -0.09,0.094 -0.196,0.094c-0.181,0 -0.648,-0.047 -1.34,-0.047c-0.799,0 -1.402,0.047 -1.491,0.047c-0.091,0 -0.107,-0.062 -0.107,-0.094c0,-0.046 0.303,-0.094 0.498,-0.312c0.27,-0.281 0.406,-0.749 0.406,-1.952l0,-6.621l-0.029,0l-4.068,8.651c-0.121,0.234 -0.226,0.407 -0.331,0.407c-0.136,0 -0.197,-0.235 -0.302,-0.469l-3.917,-8.481l-0.031,0l0,6.326c0,1.593 0.347,1.921 0.814,2.28c0.121,0.093 0.181,0.141 0.181,0.203c0,0.046 -0.06,0.062 -0.285,0.062c-0.152,0 -0.408,-0.047 -0.95,-0.047c-0.739,0 -1.024,0.047 -1.176,0.047c-0.119,0 -0.166,-0.032 -0.166,-0.078c0,-0.046 0.151,-0.124 0.257,-0.203c0.677,-0.578 0.844,-1.578 0.844,-2.717l0,-5.232c0,-1.031 -0.12,-1.359 -0.602,-1.623c-0.106,-0.064 -0.198,-0.094 -0.198,-0.172c0.017,-0.063 0.198,-0.078 0.243,-0.078c0.331,0 0.663,0.062 0.994,0.062c0.226,0 0.466,-0.062 0.692,-0.062c0.091,0 0.181,0 0.271,0.047c0.061,0.047 0.408,0.874 0.483,0.999l3.42,7.058Z" style="fill-rule:nonzero;"/><path d="M90.292,52.579c-0.316,0 -0.542,0.015 -0.723,0.015c-0.165,0.016 -0.256,0.032 -0.316,0.032c-0.12,0 -0.167,-0.016 -0.167,-0.094c0,-0.062 0.092,-0.094 0.212,-0.125c0.754,-0.234 0.964,-0.827 0.964,-2.686l0,-5.481c0,-1.061 -0.195,-1.374 -0.617,-1.499c-0.091,-0.032 -0.12,-0.078 -0.12,-0.11c0,-0.061 0.073,-0.108 0.269,-0.108c0.182,0 0.513,0.062 1.07,0.062c0.648,0 1.071,-0.062 1.387,-0.062c0.06,0 0.166,0 0.166,0.094c0,0.062 -0.061,0.077 -0.122,0.109c-0.601,0.171 -0.723,0.765 -0.736,1.374l0,4.419c0,3.498 0.224,3.67 1.686,3.67c1.431,0 3.963,-0.172 4.987,-1.467c0.075,-0.126 0.151,-0.236 0.241,-0.236c0.06,0 0.075,0.047 0.075,0.11c0,0.031 -0.015,0.126 -0.03,0.187l-0.572,1.796l-7.654,0Z" style="fill-rule:nonzero;"/><path d="M104.701,43.943l-1.824,3.373l3.527,0l-1.703,-3.373Zm-2.004,3.764l-0.965,1.89c-0.301,0.577 -0.662,1.389 -0.662,1.998c0,0.266 0.152,0.516 0.376,0.688c0.182,0.141 0.423,0.171 0.423,0.265c0,0.046 -0.091,0.062 -0.227,0.062c-0.36,0 -0.708,-0.031 -1.054,-0.031c-0.361,0 -0.738,0.031 -1.1,0.031c-0.134,0 -0.27,0 -0.27,-0.078c0,-0.094 0.225,-0.202 0.314,-0.296c0.619,-0.609 1.191,-1.655 1.554,-2.311l3.962,-7.559c0.029,-0.062 0.061,-0.093 0.105,-0.093l0.03,0c0.046,0 0.105,0.062 0.105,0.093l4.445,8.871c0.21,0.421 0.572,0.858 0.949,1.124c0.136,0.093 0.225,0.141 0.225,0.171c0,0.032 -0.013,0.078 -0.149,0.078c-0.438,0 -0.949,-0.031 -1.417,-0.031c-0.467,0 -1.1,0.031 -1.521,0.031c-0.077,0 -0.121,-0.016 -0.121,-0.046c0,-0.094 0.136,-0.11 0.286,-0.188c0.136,-0.078 0.272,-0.218 0.272,-0.561c0,-0.423 -0.332,-1.234 -0.723,-2.046l-0.979,-2.062l-3.858,0Z" style="fill-rule:nonzero;"/><path d="M122.379,51.471c-1.356,0.967 -2.756,1.42 -4.414,1.42c-3.133,0 -5.906,-2.092 -5.906,-5.449c0,-3.42 3.344,-5.169 5.424,-5.169c2.29,0 4.037,0.593 4.882,1.296l-0.423,1.326c-0.03,0.095 -0.091,0.22 -0.151,0.22c-0.045,0 -0.045,-0.11 -0.135,-0.328c-0.528,-1.296 -2.139,-2.124 -3.706,-2.124c-2.999,0 -4.278,2.155 -4.278,4.997c0,3.045 1.687,4.842 4.443,4.842c1.131,0 2.773,-0.36 2.818,-1.657l0,-1.327c0,-1.593 -0.226,-1.608 -1.718,-1.968c-0.014,0 -0.044,-0.03 -0.044,-0.062c0,-0.094 0.119,-0.094 0.301,-0.094c0.723,0 1.447,0.063 2.17,0.063c0.285,0 0.723,-0.063 1.295,-0.063c0.196,0 0.317,0 0.317,0.126c0,0.047 -0.046,0.077 -0.137,0.092c-0.436,0.141 -0.738,0.313 -0.738,0.829l0,3.03Z" style="fill-rule:nonzero;"/><path d="M129.647,43.943l-1.824,3.373l3.526,0l-1.702,-3.373Zm-2.005,3.764l-0.963,1.89c-0.303,0.577 -0.663,1.389 -0.663,1.998c0,0.266 0.15,0.516 0.376,0.688c0.183,0.141 0.422,0.171 0.422,0.265c0,0.046 -0.09,0.062 -0.226,0.062c-0.362,0 -0.708,-0.031 -1.055,-0.031c-0.361,0 -0.737,0.031 -1.1,0.031c-0.136,0 -0.271,0 -0.271,-0.078c0,-0.094 0.227,-0.202 0.316,-0.296c0.618,-0.609 1.19,-1.655 1.553,-2.311l3.962,-7.559c0.029,-0.062 0.061,-0.093 0.106,-0.093l0.029,0c0.046,0 0.106,0.062 0.106,0.093l4.443,8.871c0.213,0.421 0.574,0.858 0.95,1.124c0.136,0.093 0.226,0.141 0.226,0.171c0,0.032 -0.014,0.078 -0.15,0.078c-0.437,0 -0.949,-0.031 -1.416,-0.031c-0.468,0 -1.101,0.031 -1.523,0.031c-0.075,0 -0.12,-0.016 -0.12,-0.046c0,-0.094 0.137,-0.11 0.286,-0.188c0.137,-0.078 0.272,-0.218 0.272,-0.561c0,-0.423 -0.331,-1.234 -0.722,-2.046l-0.98,-2.062l-3.858,0Z" style="fill-rule:nonzero;"/><path d="M144.898,42.585l0.482,1.732c0.017,0.064 0.031,0.111 0.031,0.157c0,0.032 0,0.063 -0.031,0.063c-0.058,0 -0.119,-0.078 -0.195,-0.171c-0.663,-1.031 -2.215,-1.39 -3.344,-1.39c-0.527,0 -0.905,0.046 -0.905,0.64l0,5.902c0,1.953 0.196,2.687 0.723,2.874c0.227,0.078 0.378,0.14 0.378,0.172c0,0.046 -0.06,0.062 -0.167,0.062c-0.104,0 -0.467,-0.047 -1.521,-0.047c-1.191,0 -1.597,0.047 -1.747,0.047c-0.121,0 -0.136,-0.047 -0.136,-0.094c0,-0.078 0.166,-0.078 0.376,-0.125c0.603,-0.156 0.799,-1.546 0.799,-3.17l0,-5.621c0,-0.594 -0.376,-0.64 -0.904,-0.64c-1.129,0 -2.681,0.359 -3.345,1.39c-0.075,0.093 -0.135,0.171 -0.195,0.171c-0.031,0 -0.031,-0.031 -0.031,-0.063c0,-0.046 0.016,-0.093 0.031,-0.157l0.482,-1.732l9.219,0Z" style="fill-rule:nonzero;"/><path d="M175.258,39.181l293.889,0c0.915,0 1.657,-0.542 1.657,-1.208c0,-0.667 -0.742,-1.208 -1.657,-1.208l-293.889,0c-0.917,0 -1.658,0.541 -1.658,1.208c0,0.666 0.741,1.208 1.658,1.208" style="fill:#73bd42;fill-rule:nonzero;"/><path d="M1.609,38.995l148.443,0c0.667,0 1.207,-0.542 1.207,-1.208c0,-0.667 -0.54,-1.208 -1.207,-1.208l-148.443,0c-0.666,0 -1.207,0.541 -1.207,1.208c0,0.666 0.541,1.208 1.207,1.208" style="fill:#f00;fill-rule:nonzero;"/><path d="M33.86,11.078c-0.144,0 -0.247,0.006 -0.33,0.006c-0.076,0.007 -0.117,0.014 -0.145,0.014c-0.054,0 -0.075,-0.007 -0.075,-0.041c0,-0.028 0.041,-0.041 0.096,-0.056c0.344,-0.103 0.44,-0.364 0.44,-1.183l0,-2.416c0,-0.468 -0.089,-0.606 -0.281,-0.66c-0.042,-0.014 -0.055,-0.035 -0.055,-0.048c0,-0.028 0.034,-0.049 0.123,-0.049c0.083,0 0.234,0.028 0.489,0.028c0.295,0 0.488,-0.028 0.633,-0.028c0.027,0 0.075,0 0.075,0.042c0,0.027 -0.027,0.034 -0.055,0.048c-0.275,0.076 -0.33,0.337 -0.337,0.606l0,1.947c0,1.542 0.104,1.617 0.771,1.617c0.653,0 1.809,-0.075 2.276,-0.646c0.034,-0.056 0.069,-0.104 0.11,-0.104c0.028,0 0.035,0.021 0.035,0.048c0,0.014 -0.007,0.056 -0.014,0.083l-0.262,0.792l-3.494,0Z" style="fill-rule:nonzero;"/><path d="M40.223,7.272l-0.832,1.486l1.609,0l-0.777,-1.486Zm-0.915,1.658l-0.44,0.833c-0.137,0.254 -0.302,0.612 -0.302,0.881c0,0.117 0.068,0.227 0.171,0.303c0.082,0.062 0.192,0.075 0.192,0.116c0,0.021 -0.041,0.028 -0.102,0.028c-0.165,0 -0.324,-0.013 -0.483,-0.013c-0.164,0 -0.336,0.013 -0.501,0.013c-0.063,0 -0.124,0 -0.124,-0.034c0,-0.041 0.103,-0.09 0.145,-0.131c0.282,-0.268 0.543,-0.729 0.708,-1.018l1.809,-3.332c0.014,-0.027 0.027,-0.041 0.048,-0.041l0.014,0c0.02,0 0.048,0.028 0.048,0.041l2.029,3.909c0.096,0.186 0.262,0.379 0.433,0.496c0.062,0.041 0.104,0.062 0.104,0.076c0,0.013 -0.007,0.034 -0.069,0.034c-0.199,0 -0.434,-0.013 -0.646,-0.013c-0.214,0 -0.503,0.013 -0.695,0.013c-0.034,0 -0.055,-0.007 -0.055,-0.021c0,-0.041 0.061,-0.048 0.13,-0.082c0.062,-0.035 0.124,-0.097 0.124,-0.248c0,-0.186 -0.151,-0.543 -0.33,-0.901l-0.447,-0.909l-1.761,0Z" style="fill-rule:nonzero;"/><path d="M43.696,7.471c-0.006,-0.365 -0.054,-0.619 -0.371,-0.729c-0.034,-0.014 -0.061,-0.035 -0.061,-0.048c0,-0.028 0.013,-0.049 0.088,-0.049c0.069,0 0.344,0.028 0.509,0.028c0.173,0 0.372,-0.007 0.516,-0.014c0.247,0.351 0.537,0.668 0.84,0.971l2.29,2.443l0,-2.299c0,-0.585 -0.199,-0.874 -0.385,-0.984c-0.089,-0.048 -0.158,-0.048 -0.158,-0.083c0,-0.034 0.041,-0.062 0.117,-0.062c0.103,0 0.399,0.028 0.536,0.028c0.144,0 0.33,-0.028 0.475,-0.028c0.096,0 0.117,0.035 0.117,0.055c0,0.021 -0.035,0.042 -0.111,0.076c-0.171,0.069 -0.37,0.255 -0.37,0.998l-0.001,2.787c0,0.365 -0.02,0.653 -0.068,0.653l-0.014,0c-0.069,0 -0.151,-0.157 -0.579,-0.646c-0.838,-0.963 -2.077,-2.353 -3.15,-3.393l0,2.801c0,0.702 0.2,0.908 0.351,0.998c0.097,0.062 0.145,0.062 0.145,0.096c0,0.021 -0.021,0.028 -0.055,0.028c-0.082,0 -0.302,-0.02 -0.55,-0.02c-0.145,0 -0.524,0.02 -0.606,0.02c-0.048,0 -0.075,-0.007 -0.075,-0.028c0,-0.041 0.171,-0.069 0.274,-0.158c0.221,-0.193 0.296,-0.468 0.296,-1.08l0,-2.361Z" style="fill-rule:nonzero;"/><path d="M49.522,9.811c0,0.853 0.132,1.053 0.427,1.08c0.282,0.028 0.474,0.035 0.639,0.035c0.172,0 0.345,-0.007 0.516,-0.021c0.977,-0.083 1.63,-0.598 1.63,-2.126c0,-1.445 -0.667,-1.962 -2.056,-1.962l-1.156,0l0,2.994Zm-0.592,-2.216c0,-0.619 -0.089,-0.736 -0.261,-0.819c-0.04,-0.027 -0.076,-0.041 -0.076,-0.076c0,-0.027 0.021,-0.055 0.207,-0.055l2.112,0c1.706,0 2.559,1.033 2.559,2.141c0,1.259 -0.894,2.181 -2.271,2.292c-0.171,0.013 -0.35,0.02 -0.529,0.02c-0.179,0 -0.488,-0.02 -0.805,-0.02l-0.784,0c-0.144,0 -0.268,0.006 -0.364,0.013c-0.089,0.007 -0.158,0.014 -0.2,0.014c-0.027,0 -0.048,-0.007 -0.048,-0.021c0,-0.027 0.027,-0.041 0.076,-0.068c0.364,-0.207 0.384,-0.366 0.384,-1.081l0,-2.34Z" style="fill-rule:nonzero;"/><path d="M55.576,8.978c-0.565,-0.11 -1.39,-0.364 -1.39,-1.08c0,-0.888 0.881,-1.363 1.953,-1.363c0.592,0 1.28,0.152 1.803,0.428l-0.193,0.563c-0.027,0.076 -0.055,0.145 -0.075,0.145c-0.021,0 -0.035,-0.062 -0.063,-0.145c-0.206,-0.632 -1.182,-0.819 -1.678,-0.819c-0.502,0 -1.155,0.214 -1.155,0.902c0,0.66 0.846,0.778 1.327,0.874l0.811,0.152c0.613,0.116 1.157,0.426 1.157,1.114c0,1.094 -1.41,1.465 -2.195,1.465c-0.639,0 -1.451,-0.219 -2.002,-0.481c-0.048,-0.021 -0.068,-0.034 -0.068,-0.041c0,-0.007 0.007,-0.028 0.014,-0.042l0.227,-0.694c0.007,-0.028 0.026,-0.048 0.055,-0.048c0.02,0 0.041,0.02 0.049,0.054c0.089,0.771 1.14,1.081 1.808,1.081c0.633,0 1.52,-0.255 1.52,-1.018c0,-0.599 -0.467,-0.758 -1.038,-0.875l-0.867,-0.172Z" style="fill-rule:nonzero;"/><path d="M61.25,9.611c-0.233,-0.33 -0.598,-0.805 -1.052,-0.805c-0.261,0 -0.495,0.124 -0.495,0.427l0,0.826c0,0.358 0.041,0.825 0.268,0.922c0.089,0.035 0.151,0.069 0.151,0.089c0,0.021 -0.02,0.028 -0.069,0.028c-0.131,0 -0.315,-0.02 -0.647,-0.02c-0.33,0 -0.481,0.02 -0.563,0.02c-0.076,0 -0.118,-0.007 -0.118,-0.028c0,-0.013 0.042,-0.041 0.146,-0.082c0.171,-0.069 0.24,-0.585 0.24,-0.929l0,-2.492c0,-0.474 -0.048,-0.729 -0.254,-0.832c-0.034,-0.014 -0.048,-0.041 -0.048,-0.055c0,-0.014 0.02,-0.035 0.075,-0.035c0.056,0 0.269,0.028 0.522,0.028c0.159,0 0.324,-0.028 0.482,-0.028c0.055,0 0.069,0.021 0.069,0.042c0,0.027 -0.041,0.055 -0.096,0.082c-0.138,0.055 -0.158,0.337 -0.158,0.572l0,1.41l1.203,-0.902c0.489,-0.378 0.95,-0.763 0.95,-0.921c0,-0.076 -0.035,-0.124 -0.076,-0.152c-0.041,-0.034 -0.083,-0.048 -0.083,-0.076c0,-0.041 0.055,-0.055 0.117,-0.055c0.131,0 0.268,0.028 0.399,0.028c0.179,0 0.365,-0.028 0.544,-0.028c0.185,0 0.261,0.021 0.261,0.055c0,0.035 -0.179,0.09 -0.363,0.173c-0.332,0.151 -0.475,0.241 -0.779,0.461l-1.726,1.301l0,0.013c1.155,0.048 1.362,0.206 1.974,1.108c0.275,0.413 0.633,0.922 1.066,1.17c0.137,0.083 0.241,0.117 0.241,0.144c0,0.014 -0.048,0.028 -0.083,0.028c-0.062,0 -0.172,-0.02 -0.557,-0.02c-0.172,0 -0.433,0.02 -0.523,0.02l-1.018,-1.487Z" style="fill-rule:nonzero;"/><path d="M64.538,8.669l1.272,0c0.695,0 1.48,-0.131 1.48,-0.984c0,-0.634 -0.606,-0.868 -1.184,-0.868l-1.568,0l0,1.852Zm0,1.176c0,0.551 0.062,1.081 0.344,1.171c0.048,0.013 0.11,0.034 0.11,0.054c0,0.014 -0.055,0.028 -0.138,0.028c-0.068,0 -0.192,-0.02 -0.604,-0.02c-0.516,0 -0.675,0.02 -0.703,0.02c-0.026,0 -0.061,-0.007 -0.061,-0.028c0,-0.013 0.061,-0.041 0.11,-0.069c0.234,-0.117 0.35,-0.481 0.35,-1.369l0,-2.285c0,-0.22 -0.04,-0.502 -0.268,-0.591c-0.075,-0.028 -0.103,-0.056 -0.103,-0.076c0,-0.021 0.034,-0.035 0.138,-0.035l2.022,0c1.83,0 2.291,0.482 2.291,1.081c0,0.874 -1.198,1.066 -1.63,1.066l0,0.014c0.791,0.22 1.1,0.364 1.402,1.163c0.131,0.331 0.269,0.826 0.538,0.998c0.117,0.076 0.165,0.055 0.165,0.09c0,0.013 -0.008,0.021 -0.048,0.021l-0.792,0c-0.152,0 -0.185,-0.015 -0.248,-0.187c-0.151,-0.419 -0.364,-1.018 -0.509,-1.334c-0.275,-0.599 -0.536,-0.717 -1.616,-0.717l-0.75,0l0,1.005Z" style="fill-rule:nonzero;"/><path d="M73.246,8.924c0,-1.294 -0.529,-2.217 -1.836,-2.217c-1.308,0 -1.837,0.923 -1.837,2.217c0,1.197 0.529,2.119 1.837,2.119c1.307,0 1.836,-0.922 1.836,-2.119Zm-4.409,-0.063c0,-1.459 1.28,-2.326 2.573,-2.326c1.293,0 2.573,0.867 2.573,2.326c0,1.486 -1.28,2.353 -2.573,2.353c-1.293,0 -2.573,-0.867 -2.573,-2.353" style="fill-rule:nonzero;"/><path d="M74.898,7.471c-0.008,-0.365 -0.056,-0.619 -0.373,-0.729c-0.034,-0.014 -0.061,-0.035 -0.061,-0.048c0,-0.028 0.014,-0.049 0.089,-0.049c0.069,0 0.345,0.028 0.51,0.028c0.172,0 0.371,-0.007 0.515,-0.014c0.248,0.351 0.537,0.668 0.839,0.971l2.29,2.443l0,-2.299c0,-0.585 -0.199,-0.874 -0.385,-0.984c-0.089,-0.048 -0.157,-0.048 -0.157,-0.083c0,-0.034 0.041,-0.062 0.116,-0.062c0.104,0 0.399,0.028 0.537,0.028c0.144,0 0.33,-0.028 0.474,-0.028c0.097,0 0.118,0.035 0.118,0.055c0,0.021 -0.035,0.042 -0.11,0.076c-0.173,0.069 -0.372,0.255 -0.372,0.998l0,2.787c0,0.365 -0.02,0.653 -0.069,0.653l-0.014,0c-0.069,0 -0.151,-0.157 -0.577,-0.646c-0.839,-0.963 -2.078,-2.353 -3.15,-3.393l0,2.801c0,0.702 0.199,0.908 0.35,0.998c0.097,0.062 0.145,0.062 0.145,0.096c0,0.021 -0.021,0.028 -0.056,0.028c-0.082,0 -0.302,-0.02 -0.55,-0.02c-0.144,0 -0.522,0.02 -0.605,0.02c-0.048,0 -0.076,-0.007 -0.076,-0.028c0,-0.041 0.172,-0.069 0.276,-0.158c0.219,-0.193 0.296,-0.468 0.296,-1.08l0,-2.361Z" style="fill-rule:nonzero;"/><path d="M81.995,7.272l-0.832,1.486l1.609,0l-0.777,-1.486Zm-0.914,1.658l-0.441,0.833c-0.137,0.254 -0.302,0.612 -0.302,0.881c0,0.117 0.069,0.227 0.172,0.303c0.082,0.062 0.192,0.075 0.192,0.116c0,0.021 -0.04,0.028 -0.102,0.028c-0.166,0 -0.324,-0.013 -0.482,-0.013c-0.165,0 -0.337,0.013 -0.502,0.013c-0.062,0 -0.124,0 -0.124,-0.034c0,-0.041 0.103,-0.09 0.144,-0.131c0.282,-0.268 0.544,-0.729 0.709,-1.018l1.809,-3.332c0.014,-0.027 0.027,-0.041 0.048,-0.041l0.013,0c0.021,0 0.048,0.028 0.048,0.041l2.03,3.909c0.096,0.186 0.261,0.379 0.433,0.496c0.062,0.041 0.104,0.062 0.104,0.076c0,0.013 -0.008,0.034 -0.069,0.034c-0.2,0 -0.434,-0.013 -0.647,-0.013c-0.213,0 -0.502,0.013 -0.694,0.013c-0.034,0 -0.055,-0.007 -0.055,-0.021c0,-0.041 0.061,-0.048 0.13,-0.082c0.062,-0.035 0.124,-0.097 0.124,-0.248c0,-0.186 -0.151,-0.543 -0.331,-0.901l-0.446,-0.909l-1.761,0Z" style="fill-rule:nonzero;"/><path d="M290.451,17.43c0.465,0.016 0.969,0.039 1.536,0.063c0.559,0.024 0.867,0.032 0.93,0.032c6.395,0 10.585,-0.481 12.562,-1.442c1.985,-0.961 2.977,-2.63 2.977,-4.993c0,-2.142 -0.976,-3.718 -2.938,-4.741c-1.961,-1.024 -5.017,-1.536 -9.167,-1.536c-0.938,0 -1.883,0.007 -2.836,0.023c-0.953,0.016 -1.969,0.04 -3.064,0.071l0,12.523Zm19.462,16.965c-0.338,-0.787 -0.669,-1.575 -0.984,-2.355c-0.315,-0.787 -0.623,-1.598 -0.914,-2.433l-1.268,-3.568c-0.969,-2.773 -2.315,-4.71 -4.032,-5.813c-1.725,-1.111 -4.765,-1.662 -9.129,-1.662c-0.386,0 -0.929,0.016 -1.622,0.055c-0.701,0.04 -1.205,0.071 -1.513,0.087l0,5.001c0,4.183 0.221,6.876 0.654,8.089c0.433,1.205 1.292,1.977 2.56,2.316l-0.024,0.378c-1.032,-0.048 -1.985,-0.087 -2.867,-0.111c-0.882,-0.023 -1.717,-0.031 -2.497,-0.031c-0.803,0 -1.622,0.008 -2.465,0.031c-0.85,0.024 -1.701,0.063 -2.56,0.111l-0.023,-0.378c1.229,-0.323 2.064,-1.04 2.505,-2.158c0.433,-1.111 0.653,-3.859 0.653,-8.247l0,-14.444c0,-2.088 -0.189,-3.434 -0.559,-4.041c-0.37,-0.606 -1.047,-1 -2.04,-1.166l0,-0.377c0.985,0.015 2.001,0.023 3.04,0.031c1.04,0.008 2.442,0.016 4.198,0.016l4.947,0c3.426,0 5.899,0.055 7.419,0.165c1.512,0.103 2.757,0.292 3.725,0.552c1.985,0.535 3.505,1.378 4.568,2.512c1.064,1.142 1.591,2.489 1.591,4.04c0,2.261 -1.024,4.041 -3.071,5.34c-2.04,1.3 -4.907,2.001 -8.601,2.087c2.473,0.292 4.505,0.946 6.096,1.962c1.583,1.016 2.78,2.441 3.599,4.268c0.402,0.89 0.898,2.135 1.505,3.734c1.276,3.371 2.567,5.214 3.875,5.537l0,0.472c-0.63,0 -1.386,-0.008 -2.253,-0.023c-0.874,-0.016 -1.425,-0.024 -1.677,-0.024c-0.441,0 -0.906,0 -1.371,0.008c-0.472,0.008 -0.96,0.023 -1.465,0.039" style="fill-rule:nonzero;"/><path d="M337.459,26.46l0.556,0.734c-0.746,2.531 -1.92,4.445 -3.522,5.736c-1.608,1.29 -3.632,1.932 -6.066,1.932c-2.953,0 -5.368,-0.948 -7.258,-2.85c-1.889,-1.895 -2.831,-4.323 -2.831,-7.282c0,-2.923 0.93,-5.32 2.795,-7.179c1.865,-1.865 4.273,-2.794 7.221,-2.794c2.605,0 4.732,0.673 6.39,2.024c1.65,1.351 2.616,3.192 2.892,5.534l-15.812,0c-0.025,0.36 -0.043,0.709 -0.055,1.045c-0.013,0.343 -0.019,0.752 -0.019,1.229c0,2.819 0.685,5.057 2.061,6.72c1.369,1.657 3.204,2.489 5.497,2.489c1.981,0 3.663,-0.624 5.044,-1.865c1.376,-1.248 2.416,-3.07 3.107,-5.473Zm-15.513,-4.916l12.094,0c-0.073,-1.877 -0.617,-3.363 -1.638,-4.47c-1.021,-1.106 -2.354,-1.657 -4.005,-1.657c-1.657,0 -3.051,0.532 -4.177,1.596c-1.119,1.064 -1.877,2.574 -2.274,4.531" style="fill-rule:nonzero;"/><path d="M339.941,33.137l1.254,-4.145l0.177,0c0.183,1.541 0.948,2.776 2.305,3.705c1.357,0.93 3.063,1.394 5.118,1.394c1.761,0 3.167,-0.428 4.231,-1.29c1.064,-0.856 1.596,-1.981 1.596,-3.363c0,-1.162 -0.342,-2.012 -1.021,-2.544c-0.678,-0.538 -2.317,-0.972 -4.91,-1.308c-2.605,-0.349 -4.5,-0.942 -5.686,-1.779c-1.181,-0.844 -1.774,-2 -1.774,-3.468c0,-1.608 0.795,-2.947 2.391,-4.017c1.596,-1.07 3.65,-1.602 6.157,-1.602c1.376,0 2.666,0.104 3.865,0.312c1.198,0.208 2.287,0.508 3.253,0.899l-1.021,3.522l-0.251,0c-0.367,-1.345 -1.021,-2.36 -1.963,-3.045c-0.935,-0.685 -2.146,-1.027 -3.626,-1.027c-1.626,0 -2.965,0.409 -4.011,1.235c-1.046,0.825 -1.565,1.853 -1.565,3.094c0,1.003 0.367,1.749 1.1,2.238c0.734,0.489 2.367,0.874 4.886,1.162c2.861,0.324 4.849,0.862 5.962,1.62c1.106,0.758 1.663,1.883 1.663,3.381c0,2.042 -0.875,3.675 -2.617,4.904c-1.743,1.229 -4.115,1.847 -7.112,1.847c-1.553,0 -3.026,-0.141 -4.414,-0.428c-1.394,-0.282 -2.721,-0.716 -3.987,-1.297" style="fill-rule:nonzero;"/><path d="M360.272,17.178l0.214,-0.55c1.186,-0.349 2.201,-0.972 3.045,-1.871c0.844,-0.905 1.675,-2.299 2.501,-4.182l0.294,0c-0.049,0.703 -0.092,1.51 -0.129,2.409c-0.037,0.905 -0.061,1.908 -0.073,3.02l3.944,0l0,0.251l-0.374,0.923l-3.625,0l0.091,8.512c0.025,3.344 0.227,5.533 0.618,6.567c0.385,1.033 1.107,1.669 2.152,1.908l0,0.256c-0.74,-0.012 -1.596,-0.03 -2.574,-0.049c-0.972,-0.018 -1.541,-0.024 -1.706,-0.024c-0.52,-0.324 -0.874,-0.758 -1.07,-1.308c-0.202,-0.551 -0.299,-1.658 -0.299,-3.321l0,-2.024l0,-0.214c0.024,-0.428 0.036,-0.807 0.036,-1.131l0.141,-9.172l-3.186,0Z" style="fill-rule:nonzero;"/><path d="M392.27,34.421l-0.11,0c-1.303,-0.049 -2.245,-0.073 -2.825,-0.073l-0.985,0c-0.312,-0.55 -0.574,-1.119 -0.795,-1.7c-0.22,-0.587 -0.397,-1.192 -0.532,-1.828c-0.715,1.309 -1.693,2.305 -2.935,2.984c-1.247,0.679 -2.708,1.021 -4.396,1.021c-2.305,0 -4.127,-0.544 -5.473,-1.633c-1.345,-1.082 -2.017,-2.549 -2.017,-4.384c0,-2.042 1.186,-3.595 3.565,-4.653c2.378,-1.058 5.863,-1.584 10.456,-1.584l0.911,-0.018c-0.062,-2.446 -0.582,-4.243 -1.56,-5.399c-0.978,-1.156 -2.476,-1.737 -4.5,-1.737c-1.859,0 -3.369,0.428 -4.513,1.278c-1.149,0.85 -1.865,2.079 -2.152,3.675l-0.195,0l-1.132,-3.736c1.192,-0.642 2.483,-1.125 3.858,-1.443c1.382,-0.312 2.85,-0.471 4.403,-0.471c1.529,0 2.886,0.196 4.072,0.593c1.193,0.392 2.14,0.954 2.856,1.682c0.599,0.618 1.021,1.357 1.272,2.226c0.25,0.862 0.379,2.274 0.379,4.225l0,2.641c0,3.033 0.171,5.081 0.507,6.145c0.342,1.058 0.954,1.706 1.841,1.933l0,0.256Zm-5.137,-11.079c-0.177,-0.013 -0.379,-0.025 -0.599,-0.031c-0.22,-0.006 -0.55,-0.006 -0.978,-0.006c-3.198,0 -5.668,0.502 -7.411,1.498c-1.737,0.997 -2.605,2.415 -2.605,4.262c0,1.431 0.465,2.58 1.4,3.442c0.93,0.863 2.165,1.291 3.706,1.291c2.018,0 3.607,-0.642 4.757,-1.926c1.156,-1.291 1.731,-3.064 1.731,-5.339l0,-1.993l0,-1.198Z" style="fill-rule:nonzero;"/><path d="M410.106,30.85c-0.691,1.364 -1.62,2.373 -2.795,3.027c-1.167,0.654 -2.611,0.985 -4.329,0.985c-1.602,0 -2.959,-0.239 -4.078,-0.71c-1.113,-0.477 -2.012,-1.198 -2.697,-2.164c-0.428,-0.606 -0.733,-1.339 -0.911,-2.195c-0.177,-0.856 -0.269,-2.232 -0.269,-4.128l0,-0.996l0,-4.14c0,-1.516 -0.14,-2.482 -0.422,-2.904c-0.275,-0.422 -0.807,-0.654 -1.596,-0.704l0,-0.293c0.679,-0.086 1.419,-0.232 2.226,-0.453c0.801,-0.226 1.725,-0.525 2.758,-0.904c-0.043,1.033 -0.08,2.036 -0.104,3.014c-0.025,0.972 -0.037,1.895 -0.037,2.776l0,2.947c0,4.054 0.434,6.72 1.296,8.011c0.869,1.283 2.379,1.925 4.525,1.925c2.275,0 3.932,-0.745 4.978,-2.231c1.045,-1.486 1.565,-3.846 1.565,-7.081l0,-3.057c0,-2.098 -0.141,-3.382 -0.416,-3.865c-0.275,-0.477 -0.819,-0.739 -1.639,-0.789l-0.018,-0.293c0.801,-0.128 1.614,-0.312 2.427,-0.538c0.82,-0.226 1.67,-0.495 2.538,-0.819c-0.043,0.972 -0.079,1.944 -0.104,2.904c-0.025,0.96 -0.037,1.926 -0.037,2.886l0,3.534c0,3.969 0.165,6.506 0.502,7.619c0.336,1.113 0.947,1.761 1.846,1.951l0,0.256c-0.098,0 -0.244,-0.006 -0.446,-0.018c-1.205,-0.037 -2.061,-0.055 -2.562,-0.055l-0.929,0c-0.276,-0.532 -0.52,-1.082 -0.734,-1.651c-0.214,-0.568 -0.391,-1.18 -0.538,-1.847" style="fill-rule:nonzero;"/><path d="M416.752,34.458l0,-0.293c0.899,-0.263 1.51,-0.783 1.847,-1.566c0.336,-0.789 0.501,-2.476 0.501,-5.081l0,-1.528l0,-4.849c0,-1.982 -0.14,-3.186 -0.422,-3.614c-0.281,-0.428 -0.825,-0.654 -1.632,-0.679l-0.019,-0.293c0.648,-0.141 1.352,-0.318 2.104,-0.52c0.752,-0.202 1.614,-0.453 2.568,-0.764l-0.067,5.564c0.801,-1.835 1.767,-3.235 2.898,-4.195c1.137,-0.96 2.397,-1.443 3.779,-1.443c0.189,0 0.342,0 0.446,0.006c0.11,0.006 0.202,0.019 0.288,0.031l-1.401,4.035l-0.177,0c-0.238,-0.311 -0.508,-0.544 -0.807,-0.69c-0.3,-0.153 -0.636,-0.227 -1.003,-0.227c-1.211,0 -2.134,0.563 -2.77,1.688c-0.642,1.125 -0.96,2.751 -0.96,4.898l0,2.134c0,2.898 0.159,4.738 0.483,5.515c0.324,0.777 0.948,1.302 1.865,1.578l-0.018,0.293c-0.642,-0.037 -1.278,-0.067 -1.908,-0.086c-0.624,-0.018 -1.241,-0.024 -1.853,-0.024c-0.513,0 -1.082,0.006 -1.7,0.024c-0.623,0.019 -1.302,0.049 -2.042,0.086" style="fill-rule:nonzero;"/><path d="M450.541,34.421l-0.11,0c-1.302,-0.049 -2.244,-0.073 -2.825,-0.073l-0.984,0c-0.312,-0.55 -0.575,-1.119 -0.795,-1.7c-0.22,-0.587 -0.398,-1.192 -0.532,-1.828c-0.715,1.309 -1.694,2.305 -2.935,2.984c-1.248,0.679 -2.709,1.021 -4.397,1.021c-2.305,0 -4.127,-0.544 -5.472,-1.633c-1.345,-1.082 -2.018,-2.549 -2.018,-4.384c0,-2.042 1.186,-3.595 3.565,-4.653c2.379,-1.058 5.864,-1.584 10.456,-1.584l0.911,-0.018c-0.061,-2.446 -0.581,-4.243 -1.559,-5.399c-0.979,-1.156 -2.477,-1.737 -4.501,-1.737c-1.859,0 -3.369,0.428 -4.512,1.278c-1.15,0.85 -1.865,2.079 -2.152,3.675l-0.196,0l-1.131,-3.736c1.192,-0.642 2.482,-1.125 3.858,-1.443c1.382,-0.312 2.849,-0.471 4.402,-0.471c1.529,0 2.887,0.196 4.073,0.593c1.192,0.392 2.14,0.954 2.855,1.682c0.599,0.618 1.021,1.357 1.272,2.226c0.251,0.862 0.379,2.274 0.379,4.225l0,2.641c0,3.033 0.171,5.081 0.508,6.145c0.342,1.058 0.953,1.706 1.84,1.933l0,0.256Zm-5.136,-11.079c-0.177,-0.013 -0.379,-0.025 -0.599,-0.031c-0.221,-0.006 -0.551,-0.006 -0.979,-0.006c-3.198,0 -5.668,0.502 -7.41,1.498c-1.737,0.997 -2.605,2.415 -2.605,4.262c0,1.431 0.464,2.58 1.4,3.442c0.929,0.863 2.165,1.291 3.705,1.291c2.018,0 3.608,-0.642 4.757,-1.926c1.156,-1.291 1.731,-3.064 1.731,-5.339l0,-1.993l0,-1.198Z" style="fill-rule:nonzero;"/><path d="M451.538,34.458l0,-0.293c0.887,-0.276 1.492,-0.814 1.816,-1.615c0.33,-0.807 0.495,-2.586 0.495,-5.338l0,-1.247l0,-5.204c0,-1.669 -0.141,-2.714 -0.422,-3.142c-0.281,-0.429 -0.801,-0.673 -1.559,-0.734l-0.018,-0.257c0.819,-0.202 1.596,-0.416 2.342,-0.642c0.739,-0.226 1.461,-0.465 2.158,-0.715l0,5.49c0.501,-1.975 1.412,-3.473 2.739,-4.488c1.327,-1.009 3.039,-1.516 5.143,-1.516c1.394,0 2.647,0.275 3.76,0.832c1.107,0.556 1.975,1.332 2.599,2.323c0.415,0.697 0.715,1.571 0.893,2.629c0.177,1.058 0.269,2.624 0.269,4.69l0,1.462c0,3.148 0.159,5.112 0.483,5.9c0.324,0.783 0.935,1.309 1.828,1.572l0,0.293c-0.703,-0.037 -1.37,-0.067 -1.993,-0.086c-0.618,-0.018 -1.205,-0.024 -1.755,-0.024c-0.373,0 -0.863,0.006 -1.474,0.024c-0.611,0.019 -1.339,0.049 -2.189,0.086l0,-0.293c0.875,-0.263 1.473,-0.789 1.81,-1.572c0.336,-0.788 0.501,-2.482 0.501,-5.093l0,-1.535l0,-0.734c0,-3.271 -0.446,-5.656 -1.339,-7.154c-0.899,-1.504 -2.311,-2.256 -4.243,-2.256c-2.22,0 -3.895,0.795 -5.039,2.378c-1.137,1.59 -1.706,3.932 -1.706,7.032l0,1.786c0,2.941 0.159,4.8 0.477,5.576c0.312,0.771 0.917,1.296 1.798,1.572l0,0.293c-0.66,-0.037 -1.296,-0.067 -1.908,-0.086c-0.617,-0.018 -1.223,-0.024 -1.822,-0.024c-0.41,0 -0.911,0.006 -1.516,0.024c-0.606,0.019 -1.315,0.049 -2.128,0.086" style="fill-rule:nonzero;"/><path d="M496.358,12.207l-1.223,3.871l-0.214,0c-0.251,-0.526 -0.649,-0.96 -1.193,-1.297c-0.544,-0.336 -1.1,-0.501 -1.675,-0.501c-0.428,0 -0.838,0.092 -1.217,0.269c-0.385,0.184 -0.77,0.471 -1.162,0.868c1.694,0.667 2.954,1.499 3.779,2.489c0.826,0.991 1.235,2.177 1.235,3.565c0,1.908 -0.728,3.436 -2.183,4.592c-1.461,1.149 -3.546,1.834 -6.255,2.048c-0.336,0.025 -0.813,0.055 -1.431,0.092c-2.066,0.116 -3.106,0.501 -3.118,1.143c0,0.649 1.461,1.101 4.39,1.364c0.404,0.037 0.715,0.061 0.929,0.073c3.363,0.3 5.748,0.82 7.161,1.572c1.412,0.746 2.121,1.828 2.121,3.253c0,1.791 -1.027,3.234 -3.081,4.329c-2.049,1.094 -4.812,1.639 -8.292,1.639c-2.812,0 -5.13,-0.459 -6.934,-1.382c-1.809,-0.918 -2.715,-2.098 -2.715,-3.529c0,-1.161 0.545,-2.103 1.633,-2.824c1.089,-0.722 2.776,-1.266 5.057,-1.621c-1.235,-0.11 -2.134,-0.324 -2.709,-0.636c-0.575,-0.318 -0.862,-0.752 -0.862,-1.302c0,-0.624 0.367,-1.143 1.095,-1.578c0.727,-0.428 1.834,-0.764 3.32,-1.002c-1.975,-0.367 -3.504,-1.101 -4.586,-2.183c-1.083,-1.089 -1.627,-2.428 -1.627,-4.012c0,-1.913 0.863,-3.522 2.581,-4.824c1.724,-1.308 3.864,-1.963 6.42,-1.963c0.428,0 0.905,0.037 1.425,0.104c0.519,0.074 1.168,0.19 1.944,0.343c0.899,-0.997 1.853,-1.755 2.874,-2.287c1.015,-0.532 2.012,-0.801 2.99,-0.801c0.19,0 0.422,0.006 0.679,0.024c0.263,0.019 0.544,0.055 0.844,0.104Zm-11.624,20.564c-2.14,0 -3.81,0.36 -5.008,1.07c-1.205,0.709 -1.804,1.687 -1.804,2.928c0,1.272 0.654,2.263 1.963,2.99c1.308,0.722 3.124,1.083 5.442,1.083c2.556,0 4.58,-0.386 6.065,-1.15c1.486,-0.764 2.232,-1.798 2.232,-3.1c0,-1.229 -0.764,-2.177 -2.293,-2.831c-1.528,-0.66 -3.729,-0.99 -6.597,-0.99Zm0.99,-17.39c-1.785,0 -3.24,0.568 -4.36,1.7c-1.118,1.137 -1.681,2.623 -1.681,4.463c0,1.859 0.556,3.32 1.663,4.384c1.107,1.064 2.642,1.596 4.592,1.596c1.779,0 3.168,-0.562 4.164,-1.681c1.003,-1.125 1.504,-2.691 1.504,-4.696c0,-1.78 -0.526,-3.186 -1.583,-4.219c-1.052,-1.034 -2.489,-1.547 -4.299,-1.547" style="fill-rule:nonzero;"/><path d="M381.169,47.606c0.126,0.01 0.265,0.018 0.414,0.023c0.151,0.005 0.378,0.008 0.678,0.008l1.324,0c0.301,0 0.534,-0.003 0.696,-0.008c0.165,-0.005 0.316,-0.013 0.455,-0.023l-1.783,-3.717l-1.784,3.717Zm-3.66,5.011l0,-0.092c0.352,-0.221 0.74,-0.63 1.167,-1.224c0.427,-0.596 0.858,-1.333 1.296,-2.217l3.351,-6.798l0.105,0l3.56,6.857c0.668,1.295 1.154,2.151 1.459,2.565c0.306,0.413 0.604,0.686 0.89,0.817l-0.008,0.092c-0.26,-0.015 -0.504,-0.028 -0.727,-0.036c-0.221,-0.007 -0.427,-0.01 -0.612,-0.01c-0.252,0 -0.56,0.003 -0.93,0.01c-0.37,0.008 -0.792,0.021 -1.27,0.036l0,-0.092c0.252,-0.09 0.429,-0.193 0.535,-0.308c0.105,-0.116 0.159,-0.273 0.159,-0.468c0,-0.17 -0.059,-0.414 -0.177,-0.733c-0.119,-0.321 -0.363,-0.871 -0.733,-1.655l-0.632,-1.339c-0.136,-0.01 -0.275,-0.018 -0.419,-0.023c-0.144,-0.005 -0.316,-0.008 -0.524,-0.008l-2.115,0c-0.25,0 -0.442,0.003 -0.576,0.008c-0.131,0.005 -0.257,0.013 -0.373,0.023l-0.542,1.19c-0.244,0.537 -0.427,0.985 -0.548,1.344c-0.12,0.357 -0.182,0.637 -0.182,0.838c0,0.288 0.075,0.519 0.224,0.697c0.146,0.179 0.385,0.323 0.717,0.434l0,0.092c-0.165,-0.015 -0.347,-0.028 -0.543,-0.036c-0.195,-0.007 -0.491,-0.01 -0.889,-0.01c-0.37,0 -0.681,0.003 -0.928,0.01c-0.249,0.008 -0.493,0.021 -0.735,0.036" style="fill-rule:nonzero;"/><path d="M390.722,43.874c0,-0.354 -0.07,-0.629 -0.206,-0.82c-0.138,-0.19 -0.362,-0.329 -0.673,-0.413l0,-0.124c0.421,0.026 0.737,0.041 0.943,0.049c0.206,0.008 0.396,0.013 0.573,0.013c0.27,0 0.733,-0.018 1.388,-0.054c0.085,-0.005 0.144,-0.008 0.18,-0.008l0,0.124c-0.308,0.064 -0.53,0.192 -0.663,0.38c-0.134,0.188 -0.2,0.473 -0.2,0.853l0,5.222c0,0.568 0.007,1.085 0.025,1.55c0.018,0.465 0.034,0.735 0.049,0.81c0.046,0.29 0.18,0.491 0.401,0.599c0.221,0.107 0.714,0.162 1.483,0.162c1.382,0 2.462,-0.157 3.241,-0.471c0.778,-0.313 1.426,-0.83 1.942,-1.549l0.106,0.015l-0.797,2.359l-7.067,0c-0.252,0 -0.525,0 -0.82,0.003c-0.296,0.002 -0.607,0.007 -0.938,0.012l0,-0.123c0.398,-0.074 0.671,-0.293 0.817,-0.655c0.144,-0.36 0.216,-1.265 0.216,-2.712l0,-5.222Z" style="fill-rule:nonzero;"/><path d="M402.953,47.606c0.126,0.01 0.265,0.018 0.413,0.023c0.152,0.005 0.378,0.008 0.679,0.008l1.323,0c0.301,0 0.535,-0.003 0.697,-0.008c0.164,-0.005 0.316,-0.013 0.455,-0.023l-1.784,-3.717l-1.783,3.717Zm-3.66,5.011l0,-0.092c0.352,-0.221 0.74,-0.63 1.167,-1.224c0.426,-0.596 0.858,-1.333 1.295,-2.217l3.351,-6.798l0.106,0l3.559,6.857c0.669,1.295 1.154,2.151 1.46,2.565c0.306,0.413 0.604,0.686 0.889,0.817l-0.007,0.092c-0.26,-0.015 -0.504,-0.028 -0.728,-0.036c-0.221,-0.007 -0.426,-0.01 -0.611,-0.01c-0.252,0 -0.561,0.003 -0.931,0.01c-0.37,0.008 -0.791,0.021 -1.269,0.036l0,-0.092c0.252,-0.09 0.429,-0.193 0.534,-0.308c0.106,-0.116 0.16,-0.273 0.16,-0.468c0,-0.17 -0.06,-0.414 -0.178,-0.733c-0.118,-0.321 -0.362,-0.871 -0.732,-1.655l-0.633,-1.339c-0.136,-0.01 -0.274,-0.018 -0.418,-0.023c-0.144,-0.005 -0.317,-0.008 -0.525,-0.008l-2.115,0c-0.249,0 -0.442,0.003 -0.576,0.008c-0.13,0.005 -0.256,0.013 -0.372,0.023l-0.542,1.19c-0.245,0.537 -0.427,0.985 -0.548,1.344c-0.121,0.357 -0.182,0.637 -0.182,0.838c0,0.288 0.074,0.519 0.223,0.697c0.147,0.179 0.386,0.323 0.717,0.434l0,0.092c-0.164,-0.015 -0.347,-0.028 -0.542,-0.036c-0.195,-0.007 -0.491,-0.01 -0.889,-0.01c-0.37,0 -0.681,0.003 -0.928,0.01c-0.249,0.008 -0.493,0.021 -0.735,0.036" style="fill-rule:nonzero;"/><path d="M426.772,51.479c-0.648,0.473 -1.331,0.82 -2.048,1.046c-0.717,0.226 -1.509,0.339 -2.373,0.339c-1.652,0 -3.007,-0.493 -4.063,-1.48c-1.056,-0.985 -1.586,-2.267 -1.586,-3.842c0,-1.563 0.525,-2.827 1.571,-3.799c1.046,-0.972 2.413,-1.457 4.104,-1.457c0.753,0 1.475,0.095 2.164,0.285c0.689,0.193 1.336,0.478 1.938,0.861l-0.543,1.861l-0.141,-0.031c-0.247,-0.894 -0.635,-1.557 -1.164,-1.989c-0.529,-0.432 -1.221,-0.648 -2.072,-0.648c-1.305,0 -2.335,0.45 -3.089,1.347c-0.755,0.899 -1.133,2.136 -1.133,3.711c0,1.442 0.391,2.608 1.174,3.503c0.782,0.892 1.794,1.339 3.033,1.339c0.918,0 1.683,-0.262 2.295,-0.787c0.612,-0.521 1.007,-1.256 1.188,-2.197l0.144,-0.023l0.601,1.961Z" style="fill-rule:nonzero;"/><path d="M430.879,47.606c0.126,0.01 0.265,0.018 0.413,0.023c0.152,0.005 0.378,0.008 0.679,0.008l1.324,0c0.3,0 0.534,-0.003 0.696,-0.008c0.164,-0.005 0.316,-0.013 0.455,-0.023l-1.784,-3.717l-1.783,3.717Zm-3.66,5.011l0,-0.092c0.352,-0.221 0.74,-0.63 1.167,-1.224c0.426,-0.596 0.858,-1.333 1.295,-2.217l3.351,-6.798l0.106,0l3.559,6.857c0.669,1.295 1.154,2.151 1.46,2.565c0.306,0.413 0.604,0.686 0.889,0.817l-0.007,0.092c-0.26,-0.015 -0.504,-0.028 -0.728,-0.036c-0.221,-0.007 -0.426,-0.01 -0.611,-0.01c-0.252,0 -0.56,0.003 -0.931,0.01c-0.37,0.008 -0.791,0.021 -1.269,0.036l0,-0.092c0.252,-0.09 0.429,-0.193 0.534,-0.308c0.106,-0.116 0.16,-0.273 0.16,-0.468c0,-0.17 -0.059,-0.414 -0.178,-0.733c-0.118,-0.321 -0.362,-0.871 -0.732,-1.655l-0.632,-1.339c-0.136,-0.01 -0.275,-0.018 -0.419,-0.023c-0.144,-0.005 -0.316,-0.008 -0.525,-0.008l-2.115,0c-0.249,0 -0.442,0.003 -0.575,0.008c-0.132,0.005 -0.257,0.013 -0.373,0.023l-0.542,1.19c-0.245,0.537 -0.427,0.985 -0.548,1.344c-0.121,0.357 -0.182,0.637 -0.182,0.838c0,0.288 0.074,0.519 0.223,0.697c0.147,0.179 0.386,0.323 0.717,0.434l0,0.092c-0.164,-0.015 -0.347,-0.028 -0.542,-0.036c-0.195,-0.007 -0.491,-0.01 -0.889,-0.01c-0.37,0 -0.681,0.003 -0.928,0.01c-0.249,0.008 -0.493,0.021 -0.735,0.036" style="fill-rule:nonzero;"/><path d="M441.681,47.051c0.151,0.005 0.316,0.012 0.501,0.02c0.182,0.008 0.283,0.011 0.303,0.011c2.087,0 3.454,-0.157 4.099,-0.471c0.648,-0.313 0.972,-0.858 0.972,-1.629c0,-0.699 -0.319,-1.213 -0.959,-1.547c-0.64,-0.334 -1.637,-0.501 -2.991,-0.501c-0.306,0 -0.615,0.002 -0.926,0.007c-0.311,0.005 -0.642,0.013 -0.999,0.023l0,4.087Zm6.35,5.535c-0.11,-0.256 -0.218,-0.513 -0.321,-0.768c-0.103,-0.257 -0.203,-0.522 -0.298,-0.794l-0.414,-1.164c-0.316,-0.905 -0.756,-1.537 -1.316,-1.897c-0.563,-0.362 -1.554,-0.542 -2.978,-0.542c-0.126,0 -0.304,0.005 -0.53,0.018c-0.229,0.013 -0.393,0.023 -0.493,0.028l0,1.632c0,1.365 0.072,2.244 0.213,2.639c0.141,0.394 0.422,0.645 0.835,0.756l-0.007,0.123c-0.337,-0.015 -0.648,-0.028 -0.936,-0.036c-0.288,-0.007 -0.56,-0.01 -0.815,-0.01c-0.262,0 -0.529,0.003 -0.804,0.01c-0.278,0.008 -0.555,0.021 -0.836,0.036l-0.007,-0.123c0.401,-0.105 0.673,-0.339 0.817,-0.704c0.142,-0.363 0.213,-1.26 0.213,-2.691l0,-4.713c0,-0.681 -0.061,-1.121 -0.182,-1.319c-0.121,-0.198 -0.342,-0.326 -0.666,-0.38l0,-0.124c0.322,0.006 0.653,0.008 0.992,0.011c0.34,0.002 0.797,0.005 1.37,0.005l1.614,0c1.118,0 1.925,0.018 2.421,0.054c0.494,0.033 0.9,0.095 1.216,0.18c0.648,0.174 1.144,0.449 1.491,0.82c0.346,0.372 0.519,0.812 0.519,1.318c0,0.738 -0.335,1.318 -1.003,1.742c-0.665,0.425 -1.601,0.653 -2.806,0.682c0.807,0.095 1.47,0.308 1.989,0.639c0.517,0.332 0.907,0.797 1.174,1.393c0.132,0.291 0.294,0.697 0.491,1.219c0.417,1.1 0.838,1.701 1.265,1.806l0,0.154c-0.206,0 -0.452,-0.002 -0.735,-0.007c-0.285,-0.005 -0.465,-0.008 -0.548,-0.008c-0.143,0 -0.295,0 -0.447,0.003c-0.154,0.002 -0.313,0.007 -0.478,0.012" style="fill-rule:nonzero;"/><path d="M450.059,44.768l0.691,-2.189l9.024,0l0.709,2.189l-0.152,0.031c-0.485,-0.606 -1.017,-1.071 -1.593,-1.395c-0.573,-0.324 -1.151,-0.486 -1.735,-0.486c-0.431,0 -0.719,0.09 -0.866,0.27c-0.146,0.182 -0.218,0.64 -0.218,1.378l0,4.042c0,1.563 0.074,2.563 0.226,3.002c0.149,0.437 0.439,0.722 0.869,0.853l0,0.17c-0.265,-0.021 -0.535,-0.036 -0.805,-0.047c-0.272,-0.01 -0.622,-0.015 -1.048,-0.015c-0.445,0 -0.784,0.005 -1.013,0.015c-0.226,0.011 -0.445,0.026 -0.65,0.047l0,-0.17c0.429,-0.116 0.717,-0.388 0.868,-0.82c0.152,-0.431 0.227,-1.444 0.227,-3.035l0,-4.086c0,-0.712 -0.067,-1.159 -0.201,-1.337c-0.131,-0.177 -0.396,-0.267 -0.786,-0.267c-0.612,0 -1.211,0.162 -1.791,0.486c-0.584,0.324 -1.124,0.794 -1.62,1.411l-0.136,-0.047Z" style="fill-rule:nonzero;"/><path d="M461.005,42.563c0.267,0.006 0.56,0.008 0.884,0.011c0.321,0.002 0.815,0.005 1.478,0.005l6.078,0l0.781,2.174l-0.105,0.046c-0.537,-0.681 -1.146,-1.164 -1.825,-1.444c-0.681,-0.28 -1.768,-0.421 -3.264,-0.421l-0.943,0c-0.124,0 -0.262,0 -0.414,0.002c-0.149,0.003 -0.311,0.008 -0.481,0.013l0,4.102c0.132,0.005 0.309,0.012 0.53,0.02c0.224,0.008 0.362,0.011 0.411,0.011l1.717,0c0.812,0 1.421,-0.106 1.825,-0.314c0.403,-0.208 0.704,-0.555 0.899,-1.043l0.093,0l0,3.084l-0.093,0c-0.18,-0.489 -0.481,-0.838 -0.899,-1.052c-0.419,-0.213 -1.028,-0.321 -1.825,-0.321l-1.853,0l-0.414,0c-0.01,0 -0.059,0.003 -0.146,0.01c-0.088,0.008 -0.167,0.016 -0.237,0.021l-0.008,2.19c0,0.763 0.008,1.262 0.026,1.498c0.018,0.236 0.046,0.404 0.088,0.504c0.074,0.211 0.228,0.357 0.46,0.437c0.228,0.079 0.74,0.121 1.526,0.121c1.532,0 2.683,-0.155 3.454,-0.463c0.774,-0.311 1.427,-0.83 1.959,-1.557l0.09,0.015l-0.782,2.359l-7.53,0l-0.519,0c-0.159,0 -0.334,0 -0.524,0.003c-0.188,0.002 -0.391,0.007 -0.607,0.012l0,-0.123c0.404,-0.074 0.676,-0.298 0.817,-0.668c0.144,-0.373 0.216,-1.27 0.216,-2.693l0,-5.138c0,-0.401 -0.069,-0.704 -0.208,-0.91c-0.139,-0.205 -0.357,-0.326 -0.655,-0.367l0,-0.124Z" style="fill-rule:nonzero;"/><path d="M370.099,48.97l0.282,-0.905l3.574,0l-0.281,0.905l-3.575,0Z" style="fill-rule:nonzero;"/></svg>